<svg xmlns="http://www.w3.org/2000/svg" version="1.1" xmlns:xlink="http://www.w3.org/1999/xlink" id="Capa_1" x="0px" y="0px" viewBox="0 0 513.391 513.391" style="enable-background:new 0 0 513.391 513.391;" xml:space="preserve" width="512" height="512"><metadata><rdf:RDF xmlns:rdf="http://www.w3.org/1999/02/22-rdf-syntax-ns#" xmlns:dc="http://purl.org/dc/elements/1.1/"><rdf:Description><dc:creator>RealFaviconGenerator</dc:creator><dc:source>https://realfavicongenerator.net</dc:source></rdf:Description></rdf:RDF></metadata><g>
	<g>
		<path style="fill:#D37A5F;" d="M26.549,504.105l-13.014-15.51c-1.775-2.115-1.499-5.269,0.616-7.044l24.511-20.503
			l248.906-237.055L471.624,97.686l16.228,19.34c1.775,2.115,1.499,5.269-0.616,7.044L33.593,504.721
			C31.478,506.496,28.324,506.22,26.549,504.105z"></path>
		<path style="fill:#DD9373;" d="M483.39,87.813L38.662,461.048l-16.228-19.34c-1.775-2.115-1.499-5.269,0.616-7.044L463.948,64.642
			c6.443-5.406,7.283-15.012,1.877-21.455l0,0c-5.406-6.443-15.012-7.283-21.455-1.877l-7.193,6.036
			c-6.398,5.369-15.937,4.534-21.306-1.864l0,0c-5.369-6.398-4.534-15.937,1.864-21.306l7.193-6.036
			c19.239-16.144,47.923-13.634,64.067,5.605l0,0C505.139,42.985,502.629,71.669,483.39,87.813z"></path>
		<path style="fill:#FFF5C6;" d="M301.481,259.026l4.811-36.133c1.942-4.179,16.844-11.913,16.844-11.913
			c6.051-16.792,9.157-34.54,9.157-52.458v0c0-29.615-11.061-58.163-31.015-80.047l0,0c-5.013-5.497-9.498-11.453-13.396-17.79
			l-14.114-22.936l-9.922-11.373c-1.917-3.116-2.994-4.072-6.652-4.072l0,0c-3.658,0-7.054,1.898-8.971,5.013l-15.298,33.368
			c-3.899,6.336-8.384,12.292-13.396,17.79l0,0c-19.954,21.884-26.871,50.431-26.871,80.047v0c0,22.527,4.918,44.781,14.411,65.21
			l16.401,35.295H301.481z"></path>
		<path style="fill:#FAE2C0;" d="M323.135,210.98c-1.56,4.32-3.31,8.57-5.25,12.75l-16.4,35.3h-90.27
			c-8.646-19.328-22.898-45.53-27.17-67.12c-2.42-10.93-3.65-22.13-3.65-33.39c0-14.8,2.77-29.34,8.03-42.92
			s13.01-26.18,22.99-37.13c5.01-5.49,9.5-11.45,13.4-17.78l22.56-36.68c0.96-1.55,2.29-2.81,3.83-3.67
			c1.55-0.86,3.31-1.34,5.14-1.34c3.66,0,7.05,1.9,8.97,5.01l8.452,13.739c-8.632,13.676-20.244,35.116-32.102,46.741
			c-18.19,19.94-28.27,45.96-28.27,72.95c-0.098,6.434,0.051,13.503,0.738,20.692c0.268,2.801,3.897,3.738,5.474,1.407
			c7.605-11.246,14.54-19.479,18.448-23.849c4.74-5.31,11.53-8.35,18.64-8.35s13.9,3.04,18.64,8.35
			c6.585,7.361,21.739,25.679,34.277,50.878c0.736,1.479,2.145,2.502,3.779,2.745C316.73,209.808,319.983,210.369,323.135,210.98z"></path>
		<g>
			<path style="fill:#FFF5C6;" d="M249.511,231.708l-32.878-15.741c-3.375-3.138-6.125-19.701-6.125-19.701
				c-14.1-10.943-30.02-19.382-47.061-24.919l0,0c-28.166-9.152-58.734-7.454-85.713,4.761l0,0
				c-6.777,3.068-13.828,5.493-21.059,7.243l-26.175,6.336l-13.883,5.922c-3.555,0.86-4.798,1.589-5.929,5.068l0,0
				c-1.13,3.479-0.375,7.295,1.996,10.081l27.008,24.86c4.821,5.666,9.1,11.772,12.779,18.238l0,0
				c14.647,25.74,39.66,41.14,67.825,50.291l0,0c21.424,6.961,44.11,9.161,66.472,6.445l38.635-4.691L249.511,231.708z"></path>
			<path style="fill:#FAE2C0;" d="M210.507,196.266c3.627,2.819,7.128,5.796,10.504,8.933l28.504,26.506l-27.895,85.852
				c-21.054,2.25-50.377,7.708-72.231,5.099c-11.143-1.076-22.175-3.367-32.884-6.847c-14.076-4.573-27.048-11.701-38.338-20.9
				s-20.878-20.463-28.208-33.339c-3.673-6.461-7.954-12.573-12.769-18.239L9.277,210.541c-1.178-1.392-1.965-3.046-2.307-4.777
				c-0.339-1.74-0.252-3.562,0.314-5.303c1.131-3.481,3.986-6.118,7.537-6.983l15.678-3.792
				c10.34,12.436,27.142,30.105,34.533,44.974c13.343,23.461,34.975,41.089,60.644,49.429c6.089,2.082,12.858,4.124,19.908,5.692
				c2.747,0.611,4.759-2.552,3.029-4.771c-8.346-10.708-14.033-19.847-16.981-24.915c-3.585-6.149-4.378-13.546-2.181-20.308
				c2.197-6.762,7.186-12.28,13.701-15.147c9.036-3.988,31.14-12.739,58.98-16.878c1.634-0.243,3.043-1.267,3.778-2.746
				C207.413,201.995,208.952,199.075,210.507,196.266z"></path>
		</g>
		<g>
			<path style="fill:#FFF5C6;" d="M207.47,272.693l-25.131,26.405c-4.028,2.24-20.629-0.263-20.629-0.263
				c-14.765,10.029-27.71,22.561-38.242,37.057l0,0c-17.407,23.959-25.239,53.556-21.959,82.989l0,0
				c0.824,7.394,0.952,14.849,0.381,22.266L99.827,468l1.342,15.033c-0.28,3.647,0.029,5.055,2.988,7.205l0,0
				c2.959,2.15,6.822,2.611,10.205,1.217l31.989-18.004c6.878-2.835,14.008-5.017,21.294-6.518l0,0
				c29.006-5.976,51.382-25.006,68.789-48.965l0,0c13.241-18.224,22.343-39.12,26.671-61.227l7.477-38.194L207.47,272.693z"></path>
			<path style="fill:#FAE2C0;" d="M161.71,298.835c3.801-2.578,7.715-4.988,11.742-7.229l34.017-18.919l73.03,53.059
				c-4.366,20.719-8.237,50.294-17.471,70.271c-4.467,10.265-10.055,20.049-16.673,29.158
				c-8.699,11.973-19.487,22.108-31.724,30.003c-12.238,7.895-25.914,13.533-40.424,16.526c-7.28,1.497-14.416,3.679-21.292,6.508
				l-39.811,16.414c-1.688,0.69-3.504,0.927-5.256,0.718c-1.76-0.215-3.466-0.861-4.946-1.937c-2.961-2.151-4.587-5.681-4.312-9.326
				L99.827,468c15.022-5.991,37.019-16.51,53.444-18.945c26.436-5.44,49.885-20.566,65.75-42.401
				c3.861-5.148,7.896-10.954,11.566-17.174c1.43-2.424-0.956-5.315-3.601-4.355c-12.763,4.628-23.212,7.213-28.943,8.451
				c-6.956,1.51-14.236-0.022-19.988-4.201c-5.752-4.179-9.459-10.63-10.172-17.712c-1.001-9.826-2.493-33.553,2.174-61.309
				c0.274-1.629-0.265-3.285-1.444-4.442C166.202,303.548,163.9,301.183,161.71,298.835z"></path>
		</g>
		<g>
			<path style="fill:#FFF5C6;" d="M233.457,325.341l17.347,32.06c0.885,4.523-6.624,19.539-6.624,19.539
				c4.975,17.141,12.894,33.326,23.426,47.822l0,0c17.407,23.959,43.136,40.553,72.142,46.529l0,0
				c7.287,1.501,14.416,3.683,21.294,6.518l24.9,10.26l14.712,3.369c3.382,1.394,4.816,1.534,7.776-0.616l0,0
				c2.959-2.15,4.591-5.682,4.311-9.329l-7.237-35.987c-0.57-7.418-0.443-14.873,0.381-22.266l0,0
				c3.28-29.433-7.904-56.594-25.311-80.553l0,0c-13.241-18.224-30.301-33.338-49.988-44.286l-34.014-18.914L233.457,325.341z"></path>
			<path style="fill:#FAE2C0;" d="M244.179,376.94c-1.277-4.412-2.36-8.879-3.247-13.401l-7.481-38.198l73.03-53.059
				c18.355,10.555,45.287,23.375,61.433,38.331c8.382,7.42,15.961,15.758,22.579,24.868c8.699,11.974,15.005,25.365,18.731,39.443
				c3.727,14.078,4.863,28.827,3.225,43.552c-0.826,7.386-0.956,14.847-0.39,22.261l3.309,42.935
				c0.134,1.818-0.201,3.619-0.941,5.22c-0.748,1.607-1.89,3.03-3.371,4.105c-2.961,2.151-6.82,2.607-10.202,1.219l-14.913-6.147
				c-1.056-16.138-4.263-40.309-1.503-56.683c2.996-26.824-4.144-53.799-20.008-75.634c-3.702-5.263-7.978-10.894-12.76-16.307
				c-1.863-2.109-5.35-0.733-5.255,2.079c0.458,13.568-0.313,24.305-0.907,30.138c-0.714,7.082-4.42,13.532-10.172,17.712
				c-5.752,4.179-13.032,5.711-19.988,4.201c-9.654-2.085-32.681-7.997-57.636-21.013c-1.464-0.764-3.206-0.763-4.671,0.001
				C250.05,374.124,247.089,375.582,244.179,376.94z"></path>
		</g>
		<g>
			<path style="fill:#FFF5C6;" d="M291.559,316.895l35.851-6.59c4.575,0.556,16.535,12.338,16.535,12.338
				c17.84,0.565,35.679-1.965,52.721-7.502h0c28.166-9.152,51.898-28.493,66.545-54.233l0,0c3.679-6.466,7.958-12.572,12.779-18.238
				l17.452-20.511l7.75-12.951c2.371-2.786,2.948-4.106,1.817-7.585l0,0c-1.13-3.479-3.985-6.122-7.54-6.983l-36.462-4.238
				c-7.231-1.75-14.282-4.175-21.059-7.243l0,0c-26.979-12.215-56.267-9.971-84.432-0.82l0,0
				c-21.424,6.961-41.07,18.516-57.565,33.857l-28.499,26.505L291.559,316.895z"></path>
			<path style="fill:#FAE2C0;" d="M343.946,322.643c-4.591-0.149-9.173-0.5-13.748-1.053l-38.64-4.689l-27.895-85.852
				c15.711-14.195,36.225-35.847,55.439-46.581c9.647-5.679,19.919-10.31,30.628-13.789c14.076-4.573,28.76-6.432,43.301-5.626
				c14.541,0.806,28.919,4.283,42.417,10.391c6.769,3.068,13.825,5.497,21.051,7.25l41.856,10.121
				c1.771,0.434,3.38,1.31,4.674,2.508c1.297,1.208,2.297,2.734,2.863,4.474c1.131,3.481,0.372,7.292-1.993,10.079l-10.455,12.284
				c-15.674-3.983-39.653-8.402-54.373-16.087c-24.585-11.138-52.446-12.684-78.115-4.344c-6.15,1.895-12.826,4.221-19.452,7.096
				c-2.581,1.12-2.351,4.862,0.353,5.64c13.046,3.758,23.019,7.809,28.383,10.176c6.515,2.867,11.504,8.385,13.701,15.147
				c2.197,6.762,1.404,14.159-2.181,20.308c-4.966,8.537-17.705,28.61-37.795,48.322c-1.179,1.157-1.717,2.813-1.443,4.442
				C343.082,316.189,343.553,319.456,343.946,322.643z"></path>
		</g>
		<path style="fill:#FFF5C6;" d="M331.255,176.35c-1.36,11.81-4.09,23.43-8.12,34.63c-3.15-0.61-6.4-1.17-9.74-1.67
			c-1.64-0.24-3.05-1.26-3.78-2.74c-2.27-4.55-4.62-8.88-6.99-12.96c4.88-3.72,9.98-7.14,15.26-10.25
			C322.226,180.81,326.685,178.47,331.255,176.35z"></path>
		<path style="fill:#FFF5C6;" d="M363.498,246.319c-8.548-3.767-34.449-14.134-65.824-16.685c-1.123-0.091-2.1-0.801-2.534-1.841
			c-12.121-29.052-29.985-50.482-36.209-57.447c-1.195-1.337-3.278-1.337-4.472,0c-6.224,6.965-24.088,28.395-36.209,57.447
			c-0.434,1.04-1.411,1.75-2.534,1.841c-31.375,2.55-57.277,12.917-65.824,16.685c-1.641,0.723-2.284,2.704-1.382,4.253
			c4.701,8.072,19.562,31.684,43.447,52.189c0.854,0.733,1.228,1.881,0.968,2.976c-7.27,30.629-5.415,58.467-4.473,67.76
			c0.181,1.784,1.866,3.008,3.618,2.629c9.13-1.976,36.179-8.814,63.062-25.194c0.961-0.585,2.167-0.585,3.127,0
			c26.883,16.38,53.933,23.217,63.062,25.194c1.752,0.379,3.437-0.845,3.618-2.629c0.941-9.293,2.797-37.132-4.473-67.76
			c-0.26-1.096,0.113-2.243,0.968-2.976c23.884-20.506,38.746-44.117,43.447-52.189
			C365.783,249.023,365.139,247.042,363.498,246.319z"></path>
		<path style="fill:#FCC16D;" d="M291.739,281.133c0,2.419-0.277,4.906-0.743,7.187c0,0-3.918,5.133-5.598,8.173
			c-5.97,10.802-15.487,16.753-28.702,16.753c-19.354,0-29.124-12.759-29.124-32.113c0-11.958,3.687-21.045,12.83-27.369
			c2.632-1.82,4.995-5.814,4.995-5.814c3.545-1.207,7.346-1.861,11.3-1.861C276.049,246.089,291.739,261.779,291.739,281.133z"></path>
		<path style="fill:#FCA62F;" d="M290.995,288.32c-3.32,15.91-17.41,27.86-34.3,27.86c-19.35,0-35.04-15.69-35.04-35.05
			c0-15.4,9.93-28.48,23.74-33.18c-0.49,2.32-0.74,4.72-0.74,7.18c0,19.36,15.69,35.05,35.04,35.05
			C283.646,290.18,287.456,289.53,290.995,288.32z"></path>
	</g>
	<g>
		<g>
			<path style="fill:none;stroke:#000000;stroke-width:15;stroke-linecap:round;stroke-linejoin:round;stroke-miterlimit:10;" d="
				M38.662,461.048l-16.228-19.34c-1.775-2.115-1.499-5.269,0.616-7.044l84.465-70.887"></path>
			<path style="fill:none;stroke:#000000;stroke-width:15;stroke-linecap:round;stroke-linejoin:round;stroke-miterlimit:10;" d="
				M332.293,175.133L463.948,64.642c6.443-5.406,7.283-15.012,1.877-21.455l0,0c-5.406-6.443-15.012-7.283-21.455-1.877
				l-7.193,6.036c-6.398,5.369-15.937,4.534-21.306-1.864l0,0c-5.369-6.398-4.534-15.937,1.864-21.306l7.193-6.036
				c19.239-16.144,47.923-13.634,64.067,5.605l0,0c16.144,19.239,13.634,47.923-5.605,64.067l-11.765,9.874"></path>
			<path style="fill:none;stroke:#000000;stroke-width:15;stroke-linecap:round;stroke-linejoin:round;stroke-miterlimit:10;" d="
				M445.101,119.941l26.523-22.255l16.228,19.34c1.775,2.115,1.499,5.269-0.616,7.044l-56.399,47.325"></path>
			
				<line style="fill:none;stroke:#000000;stroke-width:15;stroke-linecap:round;stroke-linejoin:round;stroke-miterlimit:10;" x1="393.85" y1="162.945" x2="418.26" y2="142.463"></line>
			<path style="fill:none;stroke:#000000;stroke-width:15;stroke-linecap:round;stroke-linejoin:round;stroke-miterlimit:10;" d="
				M53.746,487.811l-20.153,16.91c-2.115,1.775-5.269,1.499-7.044-0.616l-13.014-15.51c-1.775-2.115-1.499-5.269,0.616-7.044
				l86.787-72.823"></path>
			
				<line style="fill:none;stroke:#000000;stroke-width:15;stroke-linecap:round;stroke-linejoin:round;stroke-miterlimit:10;" x1="101.149" y1="448.035" x2="80.568" y2="465.305"></line>
		</g>
		<g>
			<g>
				<path style="fill:none;stroke:#000000;stroke-width:15;stroke-linecap:round;stroke-linejoin:round;stroke-miterlimit:10;" d="
					M180.587,176.606c-5.112-2.302-10.357-4.329-15.713-6.069l0,0c-28.166-9.152-58.734-7.454-85.713,4.761l0,0
					c-6.777,3.068-13.828,5.493-21.059,7.243l-41.851,10.127c-3.555,0.86-6.41,3.504-7.54,6.983l0,0
					c-1.13,3.479-0.375,7.295,1.996,10.081l27.906,32.792c4.821,5.666,9.1,11.772,12.779,18.238l0,0
					c14.647,25.74,38.379,45.081,66.545,54.233l0,0c5.712,1.856,11.513,3.373,17.375,4.549"></path>
				<path style="fill:none;stroke:#000000;stroke-width:15;stroke-linecap:round;stroke-linejoin:round;stroke-miterlimit:10;" d="
					M176.365,288.181l-1.811,1.007c-19.688,10.947-36.748,26.061-49.988,44.286l0,0c-17.407,23.959-25.239,53.556-21.959,82.989l0,0
					c0.824,7.394,0.952,14.849,0.381,22.266l-3.301,42.932c-0.28,3.647,1.351,7.179,4.311,9.329h0
					c2.959,2.15,6.822,2.611,10.205,1.217l39.811-16.406c6.878-2.835,14.008-5.017,21.294-6.518l0,0
					c29.006-5.976,54.734-22.57,72.142-46.529l0,0c3.423-4.712,6.57-9.602,9.429-14.646"></path>
				<path style="fill:none;stroke:#000000;stroke-width:15;stroke-linecap:round;stroke-linejoin:round;stroke-miterlimit:10;" d="
					M240.401,360.932c4.328,22.107,13.43,43.002,26.671,61.227l0,0c17.407,23.959,43.136,40.553,72.142,46.529h0
					c7.287,1.501,14.416,3.684,21.294,6.518l39.811,16.406c3.382,1.394,7.245,0.933,10.205-1.217v0
					c2.959-2.15,4.591-5.682,4.311-9.329l-3.301-42.932c-0.57-7.418-0.443-14.873,0.381-22.266v0
					c3.28-29.433-4.551-59.03-21.959-82.989l0,0c-3.381-4.654-7.011-9.105-10.871-13.335"></path>
				<path style="fill:none;stroke:#000000;stroke-width:15;stroke-linecap:round;stroke-linejoin:round;stroke-miterlimit:10;" d="
					M323.894,319.861l5.088,0.618c22.362,2.715,45.048,0.516,66.472-6.445l0,0c28.166-9.152,51.898-28.493,66.545-54.233l0,0
					c3.679-6.466,7.958-12.572,12.779-18.238l27.906-32.792c2.371-2.786,3.126-6.602,1.996-10.081v0
					c-1.13-3.479-3.985-6.122-7.54-6.983l-41.851-10.127c-7.231-1.75-14.281-4.175-21.059-7.243l0,0
					c-26.979-12.215-57.547-13.913-85.713-4.761l0,0c-5.724,1.86-11.322,4.048-16.766,6.548"></path>
				<path style="fill:none;stroke:#000000;stroke-width:15;stroke-linecap:round;stroke-linejoin:round;stroke-miterlimit:10;" d="
					M185.651,123.591c-3.453,11.226-5.251,22.991-5.251,34.93v0c0,22.527,4.918,44.781,14.411,65.21l3.731,8.028"></path>
				<path style="fill:none;stroke:#000000;stroke-width:15;stroke-linecap:round;stroke-linejoin:round;stroke-miterlimit:10;" d="
					M314.344,231.345l3.538-7.613c9.493-20.429,14.411-42.684,14.411-65.21v0c0-29.615-11.061-58.163-31.015-80.047l0,0
					c-5.013-5.497-9.498-11.453-13.396-17.79l-22.564-36.673c-1.917-3.116-5.313-5.013-8.971-5.013h0
					c-3.658,0-7.054,1.898-8.971,5.013l-22.564,36.673c-3.899,6.336-8.384,12.292-13.396,17.79l0,0
					c-3.865,4.239-7.397,8.728-10.579,13.427"></path>
				<g>
					
						<line style="fill:none;stroke:#000000;stroke-width:15;stroke-linecap:round;stroke-linejoin:round;stroke-miterlimit:10;" x1="256.695" y1="167.919" x2="256.695" y2="120.5"></line>
					
						<line style="fill:none;stroke:#000000;stroke-width:15;stroke-linecap:round;stroke-linejoin:round;stroke-miterlimit:10;" x1="149.738" y1="244.992" x2="105.245" y2="230.535"></line>
					
						<line style="fill:none;stroke:#000000;stroke-width:15;stroke-linecap:round;stroke-linejoin:round;stroke-miterlimit:10;" x1="187.191" y1="375.409" x2="163.094" y2="408.576"></line>
					
						<line style="fill:none;stroke:#000000;stroke-width:15;stroke-linecap:round;stroke-linejoin:round;stroke-miterlimit:10;" x1="325.445" y1="374.37" x2="350.297" y2="408.576"></line>
					
						<line style="fill:none;stroke:#000000;stroke-width:15;stroke-linecap:round;stroke-linejoin:round;stroke-miterlimit:10;" x1="363.653" y1="244.992" x2="408.146" y2="230.535"></line>
				</g>
			</g>
			<path style="fill:none;stroke:#000000;stroke-width:15;stroke-linecap:round;stroke-linejoin:round;stroke-miterlimit:10;" d="
				M187.13,355.743c0.114,12.84,1.301,21.033,1.301,21.033s34.333-5.904,67.862-26.807c33.528,20.902,67.862,26.807,67.862,26.807
				s4.994-34.478-4.524-72.824c30.24-25.428,46.465-56.256,46.465-56.256s-31.247-15.404-70.658-18.201
				c-14.839-36.618-39.145-61.575-39.145-61.575s-24.306,24.957-39.145,61.575c-39.411,2.797-70.658,18.201-70.658,18.201
				s16.225,30.828,46.465,56.256c-1.397,5.629-2.482,11.175-3.315,16.54"></path>
			
				<circle style="fill:none;stroke:#000000;stroke-width:15;stroke-linecap:round;stroke-linejoin:round;stroke-miterlimit:10;" cx="256.876" cy="281.133" r="35.043"></circle>
		</g>
	</g>
</g></svg>