<svg width="0" height="0" fill="none" style="visibility: hidden; position: absolute;" aria-hidden="true">
    <symbol id="calendar-days" xmlns="http://www.w3.org/2000/svg" width="24" height="24" viewBox="0 0 24 24" fill="none" stroke="currentColor" stroke-width="2" stroke-linecap="round" stroke-linejoin="round" class="lucide lucide-calendar-days-icon lucide-calendar-days">
        <path d="M8 2v4"/>
        <path d="M16 2v4"/>
        <rect width="18" height="18" x="3" y="4" rx="2"/>
        <path d="M3 10h18"/>
        <path d="M8 14h.01"/>
        <path d="M12 14h.01"/>
        <path d="M16 14h.01"/>
        <path d="M8 18h.01"/>
        <path d="M12 18h.01"/>
        <path d="M16 18h.01"/>
    </symbol>
    <symbol id="cannelle" xml:space="preserve" width="682.66669" height="682.66669" viewBox="0 0 682.66669 682.66669" xmlns="http://www.w3.org/2000/svg" xmlns:svg="http://www.w3.org/2000/svg">
        <defs id="defs1105__cannelle">
            <clipPath clipPathUnits="userSpaceOnUse" id="clipPath1115__cannelle">
                <path d="M 0,512 H 512 V 0 H 0 Z" id="path1113__cannelle"/>
            </clipPath>
            <clipPath clipPathUnits="userSpaceOnUse" id="clipPath1171__cannelle">
                <path d="M 0,512 H 512 V 0 H 0 Z" id="path1169__cannelle"/>
            </clipPath>
        </defs>
        <g id="g1107__cannelle" transform="matrix(1.3333333,0,0,-1.3333333,0,682.66667)">
            <g id="g1109__cannelle">
                <g id="g1111__cannelle" clip-path="url(#clipPath1115__cannelle)">
                    <g id="g1117__cannelle" transform="translate(68.4058,214.6543)">
                        <path d="m 0,0 368.601,143.028 10.472,4.059 c 11.606,4.484 16.601,19.751 11.095,33.884 -5.476,14.133 -19.438,22.022 -31.044,17.538 L -19.95,51.422 C 6.555,61.695 24.292,9.421 0,0" style="fill:#d87e49;fill-opacity:1;fill-rule:evenodd;stroke:none" id="path1119__cannelle"/>
                    </g>
                    <g id="g1121__cannelle" transform="translate(437.0068,357.6826)">
                        <path d="m 0,0 -368.601,-143.028 c 24.291,9.421 6.555,61.695 -19.95,51.422 -86.184,-33.431 -22.532,-197.459 63.624,-164.029 24.291,9.422 6.583,61.695 -19.95,51.422 l 368.63,143.029 z" style="fill:#ac5d2c;fill-opacity:1;fill-rule:evenodd;stroke:none" id="path1123__cannelle"/>
                    </g>
                    <g id="g1125__cannelle" transform="translate(460.7598,296.4985)">
                        <path d="m 0,0 -368.63,-143.029 c 26.533,10.273 44.241,-42 19.95,-51.422 L 30.421,-47.364 c 11.578,4.512 16.572,19.751 11.096,33.884 C 36.04,0.652 22.05,8.542 10.471,4.058 Z" style="fill:#d87e49;fill-opacity:1;fill-rule:evenodd;stroke:none" id="path1127__cannelle"/>
                    </g>
                    <g id="g1129__cannelle" transform="translate(458.5742,395.625)">
                        <path d="m 0,0 -381.116,-147.881 c 4.711,-12.97 3.093,-28.379 -9.052,-33.09 l 368.601,143.029 10.471,4.058 C 0.511,-29.4 5.506,-14.132 0,0" style="fill:#c86d35;fill-opacity:1;fill-rule:evenodd;stroke:none" id="path1131__cannelle"/>
                    </g>
                    <g id="g1133__cannelle" transform="translate(502.2764,283.0186)">
                        <path d="m 0,0 -381.116,-147.882 c 4.711,-12.94 3.065,-28.378 -9.081,-33.089 L -11.096,-33.884 C 0.482,-29.372 5.477,-14.133 0,0" style="fill:#c86d35;fill-opacity:1;fill-rule:evenodd;stroke:none" id="path1135__cannelle"/>
                    </g>
                    <g id="g1137__cannelle" transform="translate(48.4561,266.0762)">
                        <path d="M 0,0 C -86.184,-33.43 -22.532,-197.459 63.624,-164.029" style="fill:none;stroke:#000000;stroke-width:15.118;stroke-linecap:round;stroke-linejoin:round;stroke-miterlimit:10;stroke-dasharray:none;stroke-opacity:1" id="path1139__cannelle"/>
                    </g>
                    <g id="g1141__cannelle" transform="translate(437.0068,357.6826)">
                        <path d="M 0,0 23.753,-61.184" style="fill:none;stroke:#000000;stroke-width:15.118;stroke-linecap:round;stroke-linejoin:round;stroke-miterlimit:10;stroke-dasharray:none;stroke-opacity:1" id="path1143__cannelle"/>
                    </g>
                    <g id="g1145__cannelle" transform="translate(238.7305,339.8892)">
                        <path d="m 0,0 188.799,73.274 c 11.606,4.484 25.568,-3.405 31.045,-17.538 5.506,-14.132 0.51,-29.4 -11.096,-33.884 -126.367,-49.039 -252.734,-98.049 -379.073,-147.087 24.292,9.422 6.555,61.695 -19.949,51.422 l 155.113,60.163" style="fill:none;stroke:#000000;stroke-width:15.118;stroke-linecap:round;stroke-linejoin:round;stroke-miterlimit:10;stroke-dasharray:none;stroke-opacity:1" id="path1147__cannelle"/>
                    </g>
                    <g id="g1149__cannelle" transform="translate(92.1299,153.4697)">
                        <path d="m 0,0 379.101,147.087 c 11.579,4.484 25.569,-3.406 31.045,-17.538 5.477,-14.133 0.483,-29.372 -11.095,-33.884 C 272.684,46.626 146.316,-2.384 19.95,-51.422 44.241,-42 26.533,10.273 0,0 Z" style="fill:none;stroke:#000000;stroke-width:15.118;stroke-linecap:round;stroke-linejoin:round;stroke-miterlimit:10;stroke-dasharray:none;stroke-opacity:1" id="path1151__cannelle"/>
                    </g>
                    <g id="g1153__cannelle" transform="translate(419.7812,116.4922)">
                        <path d="m 0,0 c -17.85,-2.128 -135.533,-8.57 -182.441,6.868 -20.631,6.782 -27.215,20.574 -14.643,36.012 20.261,24.945 44.894,28.18 97.903,33.317 32.578,3.15 34.791,22.107 61.354,26.818 C -7.917,108.293 6.414,92.146 22.192,62.887 29.116,50.088 106.077,12.6 0,0" style="fill:#ffd772;fill-opacity:1;fill-rule:evenodd;stroke:none" id="path1155__cannelle"/>
                    </g>
                    <g id="g1157__cannelle" transform="translate(371.1699,202.5649)">
                        <path d="m 0,0 c 14.87,-5.08 24.973,-18.957 35.785,-38.936 4.653,-8.627 40.949,-28.378 32.01,-44.242 76.763,14.7 9.478,48.074 3.009,59.992 C 60.701,-4.456 51.194,8.882 37.828,14.7 30.308,17.963 21.567,18.843 10.784,16.942 -3.32,14.444 -10.585,7.917 -19.155,1.873 -11.89,2.611 -5.59,1.93 0,0" style="fill:#fbba58;fill-opacity:1;fill-rule:evenodd;stroke:none" id="path1159__cannelle"/>
                    </g>
                    <g id="g1161__cannelle" transform="translate(323.7227,113.5122)">
                        <path d="m 0,0 c -32.834,0.625 -66.178,3.207 -86.383,9.848 -20.631,6.782 -27.214,20.574 -14.643,36.012 20.262,24.945 44.894,28.18 97.904,33.317 32.578,3.15 34.791,22.107 61.353,26.818 29.911,5.278 44.242,-10.87 60.02,-40.128 C 125.175,53.068 202.136,15.58 96.059,2.98 88.709,2.1 64.36,0.482 35.018,-0.028" style="fill:none;stroke:#000000;stroke-width:15.118;stroke-linecap:round;stroke-linejoin:round;stroke-miterlimit:10;stroke-dasharray:none;stroke-opacity:1" id="path1163__cannelle"/>
                    </g>
                </g>
            </g>
            <g id="g1165__cannelle">
                <g id="g1167__cannelle" clip-path="url(#clipPath1171__cannelle)">
                    <g id="g1173__cannelle" transform="translate(199.6577,687.9453)">
                        <path d="m 0,0 -39.315,32.655 c -4.337,-5.273 -8.73,-10.488 -13.209,-15.647 -21.174,-24.52 -43.793,-47.792 -69.049,-68.853 -15.306,-12.756 -23.073,-26.305 -25.398,-39.061 -9.637,-52.922 74.18,-92.805 103.291,-9.949 C -30.443,-63.099 -4.309,-6.123 0,0" style="fill:#ffe5c1;fill-opacity:1;fill-rule:evenodd;stroke:none" id="path1175__cannelle"/>
                    </g>
                    <g id="g1177__cannelle" transform="translate(306.0098,796.5391)">
                        <path d="m 0,0 c 60.801,50.06 130.19,96.661 186.03,139.633 9.014,6.945 -113.126,-14.286 -181.07,-80.645 34.554,43.257 59.497,86.286 177.811,167.129 1.899,1.021 7.851,14.542 -3.402,10.29 -202.64,-76.677 -260.38,-274.39 -407.294,-396.846 -78.687,-65.593 41.781,-151.878 77.893,-49.01 13.237,37.757 39.371,94.732 43.68,100.855 20.947,29.934 49.094,58.875 80.728,86.796" style="fill:none;stroke:#000000;stroke-width:15.118;stroke-linecap:round;stroke-linejoin:round;stroke-miterlimit:10;stroke-dasharray:none;stroke-opacity:1" id="path1179__cannelle"/>
                    </g>
                </g>
            </g>
        </g>
    </symbol>
    <symbol id="epices" xmlns="http://www.w3.org/2000/svg" x="0px" y="0px" viewBox="0 0 511.942 511.942" style="enable-background:new 0 0 511.942 511.942;" xml:space="preserve">
        <g>
            <g>
                <path style="fill:#AF602D;" d="M504.6,51.032c0,2.38-0.2,4.79-0.6,7.21l-111.55,405.26l-30.91-6.84l56.48-412.72&#10;&#9;&#9;&#9;c3.95-23.74,26.4-39.79,50.14-35.84C489.481,11.642,504.6,30.102,504.6,51.032z"/>
                <path style="fill:#D97C41;" d="M504.001,58.242l-62.44,375.58c-3.41,20.51-22.8,34.37-43.31,30.96l-5.8-1.28l67.39-405.33&#10;&#9;&#9;&#9;c0.74-4.51,6.2-6.45,9.56-3.37C475.171,60.102,485.54,63.932,504.001,58.242z"/>
                <path style="fill:#E4996D;" d="M349.404,456.659c0,0,1.779,22.124,23.406,35.068c10.401,6.225,23.818-0.236,25.806-12.194&#10;&#9;&#9;&#9;l62.702-377.143c1.356-8.155-3.233-16.13-10.958-19.073c-30.096-11.464-32.34-39.376-32.34-39.376L349.404,456.659z"/>
                <path style="fill:#AF602D;" d="M401.146,433.578L312.037,63.417c-4.866-20.214-25.198-32.657-45.413-27.79l-25.552,11.589&#10;&#9;&#9;&#9;l75.332,406.762c5.633,23.401,29.17,37.804,52.571,32.171l0,0C392.376,480.516,406.779,456.979,401.146,433.578z"/>
                <path style="fill:#D97C41;" d="M220.032,37.887c2.136-7.761,7.215-18.865,19.293-27.321c9.93-6.952,23.774-1.466,26.611,10.319&#10;&#9;&#9;&#9;l89.48,371.701c1.935,8.037-2.073,16.319-9.568,19.807c-29.2,13.584-29.445,41.585-29.445,41.585L219.82,52.768&#10;&#9;&#9;&#9;C218.64,47.867,218.694,42.748,220.032,37.887z"/>
                <path style="fill:#FBF198;" d="M500.66,281.952l-10.23,86.96l-15.09,39.21l6.23,36.09l-2.41,20.49&#10;&#9;&#9;&#9;c-2.67,22.66-21.87,39.74-44.69,39.74h-130.79c-22.82,0-42.03-17.08-44.7-39.74l-2.41-20.49l-8.86-75.3l-10.23-86.96&#10;&#9;&#9;&#9;c-2.08-17.73,11.67-33.32,29.47-33.5l31.71,10.85l57.92-10.86h114.28C488.82,248.442,502.76,264.112,500.66,281.952z"/>
                <path style="fill:#FAD989;" d="M369.251,504.442h-65.57c-22.82,0-42.03-17.08-44.7-39.74l-2.41-20.49l-8.86-75.3l-10.23-86.96&#10;&#9;&#9;&#9;c-2.09-17.84,11.84-33.51,29.8-33.51h93.28c-8.82,6.21-14.42,16.7-13.77,28.43l11.19,199.04&#10;&#9;&#9;&#9;C358.59,486.742,362.711,496.632,369.251,504.442z"/>
                <polygon style="fill:#FFCA8B;" points="490.431,368.912 481.57,444.212 356.201,444.212 345.64,406.562 351.961,368.912 &#9;&#9;"/>
                <polygon style="fill:#FFB25A;" points="356.201,444.212 256.57,444.212 247.711,368.912 351.961,368.912 &#9;&#9;"/>
                <path style="fill:#E4996D;" d="M322.521,303.952c-17.94-10.25-55.07-26.94-91.17-15.21l-0.11,0.03c-4.78,1.56-9.68-2-9.67-7.02&#10;&#9;&#9;&#9;v-0.12c0-20.76-8.18-39.18-18.1-53.89c-8.21-12.19-17.62-21.82-24.54-28.12c-5.71-5.18-14.42-5.18-20.13,0&#10;&#9;&#9;&#9;c-15.3,13.9-42.64,44.05-42.64,82.01v0.12c0,5.02-4.9,8.58-9.67,7.02l-0.11-0.03c-36.11-11.73-73.23,4.96-91.17,15.21&#10;&#9;&#9;&#9;c-6.69,3.82-9.39,12.1-6.23,19.12c8.48,18.84,28.71,54.18,64.83,65.92l0.11,0.04c4.77,1.54,6.64,7.3,3.69,11.36l-0.07,0.09&#10;&#9;&#9;&#9;c-22.32,30.73-17.91,71.21-13.7,91.44c1.56,7.53,8.61,12.65,16.26,11.81c8.2-0.89,19.48-2.76,31.5-6.63&#10;&#9;&#9;&#9;c18.07-5.83,37.81-16.2,51.22-34.66l0.07-0.09c2.95-4.06,9-4.06,11.95,0l0.07,0.09c22.32,30.73,62.18,39.04,82.72,41.29&#10;&#9;&#9;&#9;c7.64,0.84,14.69-4.28,16.26-11.81c4.21-20.23,8.62-60.71-13.71-91.44l-0.06-0.09c-2.96-4.06-1.08-9.82,3.69-11.36l0.11-0.04&#10;&#9;&#9;&#9;c36.12-11.74,56.34-47.08,64.83-65.92C331.91,316.052,329.211,307.772,322.521,303.952z"/>
                <path style="fill:#D97C41;" d="M203.471,227.742c-19.66,17.02-56,54.62-59.35,102.34c-1.36,19.36-6.13,38.37-14.65,55.82&#10;&#9;&#9;&#9;c-11.85,24.26-24.55,63.24-17.87,111.2c-12.02,3.87-23.3,5.74-31.5,6.63c-7.65,0.84-14.7-4.28-16.26-11.81&#10;&#9;&#9;&#9;c-4.21-20.23-8.62-60.71,13.7-91.44l0.07-0.09c2.95-4.06,1.08-9.82-3.69-11.36l-0.11-0.04c-36.12-11.74-56.35-47.08-64.83-65.92&#10;&#9;&#9;&#9;c-3.16-7.02-0.46-15.3,6.23-19.12c17.94-10.25,55.06-26.94,91.17-15.21l0.11,0.03c4.77,1.56,9.67-2,9.67-7.02v-0.12&#10;&#9;&#9;&#9;c0-37.96,27.34-68.11,42.64-82.01c5.71-5.18,14.42-5.18,20.13,0C185.85,205.922,195.26,215.552,203.471,227.742z"/>
                <path style="fill:#D97C41;" d="M177.714,376.643c-1.34,0.974-2.606,2.018-3.799,3.127c-2.865,2.663-7.238,2.663-10.104,0&#10;&#9;&#9;&#9;c-1.193-1.109-2.459-2.153-3.799-3.127c-1.34-0.974-2.725-1.855-4.148-2.647c-3.418-1.902-4.769-6.061-3.122-9.609&#10;&#9;&#9;&#9;c0.686-1.477,1.288-3.004,1.8-4.58c0.512-1.576,0.922-3.165,1.236-4.763c0.753-3.838,4.291-6.409,8.174-5.939&#10;&#9;&#9;&#9;c1.617,0.196,3.255,0.297,4.912,0.297s3.295-0.101,4.912-0.297c3.883-0.47,7.421,2.101,8.174,5.939&#10;&#9;&#9;&#9;c0.314,1.598,0.724,3.187,1.236,4.763c0.512,1.576,1.114,3.102,1.8,4.58c1.647,3.548,0.295,7.707-3.122,9.609&#10;&#9;&#9;&#9;C180.44,374.787,179.055,375.669,177.714,376.643z"/>
                <path style="fill:#D97C41;" d="M191.451,281.632c0,20.8-10.11,37.65-22.59,37.65c-7.94,0-14.93-6.83-18.95-17.17&#10;&#9;&#9;&#9;c-2.3-5.89-3.64-12.93-3.64-20.48c0-20.79,10.12-37.64,22.59-37.64c4.53,0,8.75,2.22,12.27,6.04&#10;&#9;&#9;&#9;C187.35,256.742,191.451,268.392,191.451,281.632z"/>
                <path style="fill:#AF602D;" d="M181.13,250.032c-12,13.84-24.19,31.57-31.22,52.08c-2.3-5.89-3.64-12.93-3.64-20.48&#10;&#9;&#9;&#9;c0-20.79,10.12-37.64,22.59-37.64C173.39,243.992,177.61,246.212,181.13,250.032z"/>
                <ellipse transform="matrix(0.309 -0.9511 0.9511 0.309 -260.0276 319.8344)" style="fill:#AF602D;" cx="90.093" cy="338.866" rx="22.588" ry="37.647"/>
                <path style="fill:#D97C41;" d="M138.451,444.742c-8.28,11.4-19.25,18.6-28.6,19.79c-4.46,0.56-8.55-0.25-11.8-2.61&#10;&#9;&#9;&#9;c-10.09-7.33-8.37-26.91,3.86-43.73c6.16-8.48,13.81-14.64,21.17-17.72c7.25-3.04,14.22-3.1,19.23,0.54&#10;&#9;&#9;&#9;C152.4,408.342,150.681,427.922,138.451,444.742z"/>
                <path style="fill:#AF602D;" d="M123.08,400.472c-6.69,17.1-12.43,38.83-13.23,64.06c-4.46,0.56-8.55-0.25-11.8-2.61&#10;&#9;&#9;&#9;c-10.09-7.33-8.37-26.91,3.86-43.73C108.07,409.712,115.721,403.552,123.08,400.472z"/>
                <ellipse transform="matrix(0.809 -0.5878 0.5878 0.809 -212.0615 210.2726)" style="fill:#D97C41;" cx="217.546" cy="431.465" rx="22.588" ry="37.647"/>
                <ellipse transform="matrix(0.9511 -0.309 0.309 0.9511 -92.5953 93.1081)" style="fill:#D97C41;" cx="247.633" cy="338.866" rx="37.647" ry="22.588"/>
            </g>
            <g>
                <path style="fill:none;stroke:#000000;stroke-width:15;stroke-linecap:round;stroke-linejoin:round;stroke-miterlimit:10;" d="&#10;&#9;&#9;&#9;M270.32,34.932c18.94-2.62,37.15,9.5,41.72,28.48l44.3,184.03"/>
                <path style="fill:none;stroke:#000000;stroke-width:15;stroke-linecap:round;stroke-linejoin:round;stroke-miterlimit:10;" d="&#10;&#9;&#9;&#9;M266.68,247.462l-46.86-194.69c-1.18-4.91-1.13-10.02,0.21-14.89c2.14-7.76,7.22-18.86,19.29-27.32&#10;&#9;&#9;&#9;c9.93-6.95,23.78-1.46,26.62,10.32l54.54,226.56"/>
                <path style="fill:none;stroke:#000000;stroke-width:15;stroke-linecap:round;stroke-linejoin:round;stroke-miterlimit:10;" d="&#10;&#9;&#9;&#9;M418.02,43.942c3.95-23.74,26.4-39.79,50.14-35.84c21.456,3.563,39.98,22.759,35.423,52.449L472.54,247.492"/>
                <path style="fill:none;stroke:#000000;stroke-width:15;stroke-linecap:round;stroke-linejoin:round;stroke-miterlimit:10;" d="&#10;&#9;&#9;&#9;M455.46,84.542l4.38-26.37c0.74-4.51,6.2-6.45,9.56-3.37c5.593,5.138,15.509,8.894,32.927,3.936"/>
                <path style="fill:none;stroke:#000000;stroke-width:15;stroke-linecap:round;stroke-linejoin:round;stroke-miterlimit:10;" d="&#10;&#9;&#9;&#9;M384.19,247.442l33.83-203.5c0,0,2.25,27.91,32.34,39.38c7.73,2.94,12.32,10.91,10.96,19.07l-5.95,35.82"/>
                <line style="fill:none;stroke:#000000;stroke-width:15;stroke-linecap:round;stroke-linejoin:round;stroke-miterlimit:10;" x1="449.63" y1="172.742" x2="437.21" y2="247.442"/>
                <path style="fill:none;stroke:#000000;stroke-width:15;stroke-linecap:round;stroke-linejoin:round;stroke-miterlimit:10;" d="&#10;&#9;&#9;&#9;M274.88,494.022c0,0.01,0,0.01,0,0.01c7.84,6.52,17.91,10.41,28.8,10.41h130.79c22.82,0,42.02-17.08,44.69-39.74l21.5-182.75&#10;&#9;&#9;&#9;c2.1-17.84-11.84-33.51-29.8-33.51H267.28c-17.96,0-31.89,15.67-29.8,33.51l0.52,4.43"/>
                <line style="fill:none;stroke:#000000;stroke-width:15;stroke-linecap:round;stroke-linejoin:round;stroke-miterlimit:10;" x1="412.69" y1="368.912" x2="297.97" y2="368.912"/>
                <line style="fill:none;stroke:#000000;stroke-width:15;stroke-linecap:round;stroke-linejoin:round;stroke-miterlimit:10;" x1="489.43" y1="368.912" x2="447.69" y2="368.912"/>
                <line style="fill:none;stroke:#000000;stroke-width:15;stroke-linecap:round;stroke-linejoin:round;stroke-miterlimit:10;" x1="478.57" y1="444.212" x2="278.54" y2="444.212"/>
                <path style="fill:none;stroke:#000000;stroke-width:15;stroke-linecap:round;stroke-linejoin:round;stroke-miterlimit:10;" d="&#10;&#9;&#9;&#9;M24.3,349.972c-7.02-9.89-12.05-19.62-15.32-26.9c-3.16-7.02-0.46-15.3,6.23-19.12c17.94-10.25,55.06-26.94,91.17-15.21l0.11,0.03&#10;&#9;&#9;&#9;c4.66,1.524,9.67-1.836,9.67-7.14c0-37.96,27.34-68.11,42.64-82.01c5.71-5.18,14.42-5.18,20.13,0&#10;&#9;&#9;&#9;c23.265,21.15,42.64,50.236,42.64,82.13c-0.01,5.02,4.89,8.58,9.67,7.02l0.11-0.03c36.1-11.73,73.23,4.96,91.17,15.21&#10;&#9;&#9;&#9;c6.69,3.82,9.39,12.1,6.23,19.12c-8.49,18.84-28.71,54.18-64.83,65.92c-5.212,1.895-6.587,7.22-3.74,11.49&#10;&#9;&#9;&#9;c22.33,30.73,17.92,71.21,13.71,91.44c-1.57,7.53-8.62,12.65-16.26,11.81c-20.54-2.25-60.4-10.56-82.72-41.29&#10;&#9;&#9;&#9;c-3.383-4.349-8.946-4.042-12.09,0c-22.32,30.73-62.19,39.04-82.72,41.29c-7.65,0.84-14.7-4.28-16.26-11.81&#10;&#9;&#9;&#9;c-4.21-20.23-8.62-60.71,13.7-91.44c2.837-3.648,1.683-9.521-3.73-11.49c-9.54-3.1-17.97-7.85-25.37-13.5"/>
                <path style="fill:none;stroke:#000000;stroke-width:15;stroke-linecap:round;stroke-linejoin:round;stroke-miterlimit:10;" d="&#10;&#9;&#9;&#9;M173.915,379.77c-2.865,2.663-7.238,2.663-10.104,0c-2.412-2.241-5.071-4.173-7.948-5.774c-3.418-1.902-4.769-6.061-3.122-9.609&#10;&#9;&#9;&#9;c1.386-2.987,2.402-6.111,3.036-9.343c0.753-3.838,4.291-6.409,8.174-5.939c3.269,0.395,6.555,0.395,9.824,0&#10;&#9;&#9;&#9;c3.883-0.47,7.421,2.101,8.174,5.939c0.634,3.231,1.649,6.356,3.036,9.343c1.647,3.548,0.295,7.707-3.122,9.609&#10;&#9;&#9;&#9;C178.986,375.597,176.327,377.528,173.915,379.77z"/>
                <ellipse style="fill:none;stroke:#000000;stroke-width:15;stroke-linecap:round;stroke-linejoin:round;stroke-miterlimit:10;" cx="168.863" cy="281.636" rx="22.588" ry="37.647"/>
                <ellipse transform="matrix(0.309 -0.9511 0.9511 0.309 -260.0276 319.8344)" style="fill:none;stroke:#000000;stroke-width:15;stroke-linecap:round;stroke-linejoin:round;stroke-miterlimit:10;" cx="90.093" cy="338.866" rx="22.588" ry="37.647"/>
                <ellipse transform="matrix(0.5878 -0.809 0.809 0.5878 -299.5226 275.0846)" style="fill:none;stroke:#000000;stroke-width:15;stroke-linecap:round;stroke-linejoin:round;stroke-miterlimit:10;" cx="120.181" cy="431.465" rx="37.647" ry="22.588"/>
                <ellipse transform="matrix(0.809 -0.5878 0.5878 0.809 -212.0615 210.2726)" style="fill:none;stroke:#000000;stroke-width:15;stroke-linecap:round;stroke-linejoin:round;stroke-miterlimit:10;" cx="217.546" cy="431.465" rx="22.588" ry="37.647"/>
                <ellipse transform="matrix(0.9511 -0.309 0.309 0.9511 -92.5953 93.1081)" style="fill:none;stroke:#000000;stroke-width:15;stroke-linecap:round;stroke-linejoin:round;stroke-miterlimit:10;" cx="247.633" cy="338.866" rx="37.647" ry="22.588"/>
            </g>
        </g>
        <g> </g>
        <g> </g>
        <g> </g>
        <g> </g>
        <g> </g>
        <g> </g>
        <g> </g>
        <g> </g>
        <g> </g>
        <g> </g>
        <g> </g>
        <g> </g>
        <g> </g>
        <g> </g>
        <g> </g>
    </symbol>
    <symbol id="facebook" xmlns="http://www.w3.org/2000/svg" x="0px" y="0px" viewBox="0 0 512 512" style="enable-background:new 0 0 512 512;" xml:space="preserve">
        <path style="fill:#1976D2;" d="M384,176h-96v-64c0-17.664,14.336-32,32-32h32V0h-64l0,0c-53.024,0-96,42.976-96,96v80h-64v80h64v256 h96V256h64L384,176z"/>
        <g> </g>
        <g> </g>
        <g> </g>
        <g> </g>
        <g> </g>
        <g> </g>
        <g> </g>
        <g> </g>
        <g> </g>
        <g> </g>
        <g> </g>
        <g> </g>
        <g> </g>
        <g> </g>
        <g> </g>
    </symbol>
    <symbol id="instagram" xmlns="http://www.w3.org/2000/svg" x="0px" y="0px" viewBox="0 0 512 512" style="enable-background:new 0 0 512 512;" xml:space="preserve">
        <linearGradient id="SVGID_1___instagram" gradientUnits="userSpaceOnUse" x1="-46.0041" y1="634.1208" x2="-32.9334" y2="647.1917" gradientTransform="matrix(32 0 0 -32 1519 20757)">
            <stop offset="0" style="stop-color:#FFC107"/>
            <stop offset="0.507" style="stop-color:#F44336"/>
            <stop offset="0.99" style="stop-color:#9C27B0"/>
        </linearGradient>
        <path style="fill:url(#SVGID_1___instagram);" d="M352,0H160C71.648,0,0,71.648,0,160v192c0,88.352,71.648,160,160,160h192 c88.352,0,160-71.648,160-160V160C512,71.648,440.352,0,352,0z M464,352c0,61.76-50.24,112-112,112H160c-61.76,0-112-50.24-112-112 V160C48,98.24,98.24,48,160,48h192c61.76,0,112,50.24,112,112V352z"/>
        <linearGradient id="SVGID_2___instagram" gradientUnits="userSpaceOnUse" x1="-42.2971" y1="637.8279" x2="-36.6404" y2="643.4846" gradientTransform="matrix(32 0 0 -32 1519 20757)">
            <stop offset="0" style="stop-color:#FFC107"/>
            <stop offset="0.507" style="stop-color:#F44336"/>
            <stop offset="0.99" style="stop-color:#9C27B0"/>
        </linearGradient>
        <path style="fill:url(#SVGID_2___instagram);" d="M256,128c-70.688,0-128,57.312-128,128s57.312,128,128,128s128-57.312,128-128 S326.688,128,256,128z M256,336c-44.096,0-80-35.904-80-80c0-44.128,35.904-80,80-80s80,35.872,80,80 C336,300.096,300.096,336,256,336z"/>
        <linearGradient id="SVGID_3___instagram" gradientUnits="userSpaceOnUse" x1="-35.5456" y1="644.5793" x2="-34.7919" y2="645.3331" gradientTransform="matrix(32 0 0 -32 1519 20757)">
            <stop offset="0" style="stop-color:#FFC107"/>
            <stop offset="0.507" style="stop-color:#F44336"/>
            <stop offset="0.99" style="stop-color:#9C27B0"/>
        </linearGradient>
        <circle style="fill:url(#SVGID_3___instagram);" cx="393.6" cy="118.4" r="17.056"/>
        <g> </g>
        <g> </g>
        <g> </g>
        <g> </g>
        <g> </g>
        <g> </g>
        <g> </g>
        <g> </g>
        <g> </g>
        <g> </g>
        <g> </g>
        <g> </g>
        <g> </g>
        <g> </g>
        <g> </g>
    </symbol>
    <symbol id="mail" xmlns="http://www.w3.org/2000/svg" width="24" height="24" viewBox="0 0 24 24" fill="none" stroke="currentColor" stroke-width="2" stroke-linecap="round" stroke-linejoin="round" class="lucide lucide-mail-icon lucide-mail">
        <path d="m22 7-8.991 5.727a2 2 0 0 1-2.009 0L2 7"/>
        <rect x="2" y="4" width="20" height="16" rx="2"/>
    </symbol>
    <symbol id="map-pin" xmlns="http://www.w3.org/2000/svg" width="24" height="24" viewBox="0 0 24 24" fill="none" stroke="currentColor" stroke-width="2" stroke-linecap="round" stroke-linejoin="round" class="lucide lucide-map-pin-icon lucide-map-pin">
        <path d="M20 10c0 4.993-5.539 10.193-7.399 11.799a1 1 0 0 1-1.202 0C9.539 20.193 4 14.993 4 10a8 8 0 0 1 16 0"/>
        <circle cx="12" cy="10" r="3"/>
    </symbol>
    <symbol id="phone" xmlns="http://www.w3.org/2000/svg" width="24" height="24" viewBox="0 0 24 24" fill="none" stroke="currentColor" stroke-width="2" stroke-linecap="round" stroke-linejoin="round" class="lucide lucide-phone-icon lucide-phone">
        <path d="M13.832 16.568a1 1 0 0 0 1.213-.303l.355-.465A2 2 0 0 1 17 15h3a2 2 0 0 1 2 2v3a2 2 0 0 1-2 2A18 18 0 0 1 2 4a2 2 0 0 1 2-2h3a2 2 0 0 1 2 2v3a2 2 0 0 1-.8 1.6l-.468.351a1 1 0 0 0-.292 1.233 14 14 0 0 0 6.392 6.384"/>
    </symbol>
    <symbol id="send" xmlns="http://www.w3.org/2000/svg" width="24" height="24" viewBox="0 0 24 24" fill="none" stroke="currentColor" stroke-width="2" stroke-linecap="round" stroke-linejoin="round" class="lucide lucide-send-icon lucide-send">
        <path d="M14.536 21.686a.5.5 0 0 0 .937-.024l6.5-19a.496.496 0 0 0-.635-.635l-19 6.5a.5.5 0 0 0-.024.937l7.93 3.18a2 2 0 0 1 1.112 1.11z"/>
        <path d="m21.854 2.147-10.94 10.939"/>
    </symbol>
    <symbol id="vanille" xmlns="http://www.w3.org/2000/svg" x="0px" y="0px" viewBox="0 0 513.391 513.391" style="enable-background:new 0 0 513.391 513.391;" xml:space="preserve" width="512" height="512">
        <g>
            <g>
                <path style="fill:#D37A5F;" d="M26.549,504.105l-13.014-15.51c-1.775-2.115-1.499-5.269,0.616-7.044l24.511-20.503&#10;&#9;&#9;&#9;l248.906-237.055L471.624,97.686l16.228,19.34c1.775,2.115,1.499,5.269-0.616,7.044L33.593,504.721&#10;&#9;&#9;&#9;C31.478,506.496,28.324,506.22,26.549,504.105z"/>
                <path style="fill:#DD9373;" d="M483.39,87.813L38.662,461.048l-16.228-19.34c-1.775-2.115-1.499-5.269,0.616-7.044L463.948,64.642&#10;&#9;&#9;&#9;c6.443-5.406,7.283-15.012,1.877-21.455l0,0c-5.406-6.443-15.012-7.283-21.455-1.877l-7.193,6.036&#10;&#9;&#9;&#9;c-6.398,5.369-15.937,4.534-21.306-1.864l0,0c-5.369-6.398-4.534-15.937,1.864-21.306l7.193-6.036&#10;&#9;&#9;&#9;c19.239-16.144,47.923-13.634,64.067,5.605l0,0C505.139,42.985,502.629,71.669,483.39,87.813z"/>
                <path style="fill:#FFF5C6;" d="M301.481,259.026l4.811-36.133c1.942-4.179,16.844-11.913,16.844-11.913&#10;&#9;&#9;&#9;c6.051-16.792,9.157-34.54,9.157-52.458v0c0-29.615-11.061-58.163-31.015-80.047l0,0c-5.013-5.497-9.498-11.453-13.396-17.79&#10;&#9;&#9;&#9;l-14.114-22.936l-9.922-11.373c-1.917-3.116-2.994-4.072-6.652-4.072l0,0c-3.658,0-7.054,1.898-8.971,5.013l-15.298,33.368&#10;&#9;&#9;&#9;c-3.899,6.336-8.384,12.292-13.396,17.79l0,0c-19.954,21.884-26.871,50.431-26.871,80.047v0c0,22.527,4.918,44.781,14.411,65.21&#10;&#9;&#9;&#9;l16.401,35.295H301.481z"/>
                <path style="fill:#FAE2C0;" d="M323.135,210.98c-1.56,4.32-3.31,8.57-5.25,12.75l-16.4,35.3h-90.27&#10;&#9;&#9;&#9;c-8.646-19.328-22.898-45.53-27.17-67.12c-2.42-10.93-3.65-22.13-3.65-33.39c0-14.8,2.77-29.34,8.03-42.92&#10;&#9;&#9;&#9;s13.01-26.18,22.99-37.13c5.01-5.49,9.5-11.45,13.4-17.78l22.56-36.68c0.96-1.55,2.29-2.81,3.83-3.67&#10;&#9;&#9;&#9;c1.55-0.86,3.31-1.34,5.14-1.34c3.66,0,7.05,1.9,8.97,5.01l8.452,13.739c-8.632,13.676-20.244,35.116-32.102,46.741&#10;&#9;&#9;&#9;c-18.19,19.94-28.27,45.96-28.27,72.95c-0.098,6.434,0.051,13.503,0.738,20.692c0.268,2.801,3.897,3.738,5.474,1.407&#10;&#9;&#9;&#9;c7.605-11.246,14.54-19.479,18.448-23.849c4.74-5.31,11.53-8.35,18.64-8.35s13.9,3.04,18.64,8.35&#10;&#9;&#9;&#9;c6.585,7.361,21.739,25.679,34.277,50.878c0.736,1.479,2.145,2.502,3.779,2.745C316.73,209.808,319.983,210.369,323.135,210.98z"/>
                <g>
                    <path style="fill:#FFF5C6;" d="M249.511,231.708l-32.878-15.741c-3.375-3.138-6.125-19.701-6.125-19.701&#10;&#9;&#9;&#9;&#9;c-14.1-10.943-30.02-19.382-47.061-24.919l0,0c-28.166-9.152-58.734-7.454-85.713,4.761l0,0&#10;&#9;&#9;&#9;&#9;c-6.777,3.068-13.828,5.493-21.059,7.243l-26.175,6.336l-13.883,5.922c-3.555,0.86-4.798,1.589-5.929,5.068l0,0&#10;&#9;&#9;&#9;&#9;c-1.13,3.479-0.375,7.295,1.996,10.081l27.008,24.86c4.821,5.666,9.1,11.772,12.779,18.238l0,0&#10;&#9;&#9;&#9;&#9;c14.647,25.74,39.66,41.14,67.825,50.291l0,0c21.424,6.961,44.11,9.161,66.472,6.445l38.635-4.691L249.511,231.708z"/>
                    <path style="fill:#FAE2C0;" d="M210.507,196.266c3.627,2.819,7.128,5.796,10.504,8.933l28.504,26.506l-27.895,85.852&#10;&#9;&#9;&#9;&#9;c-21.054,2.25-50.377,7.708-72.231,5.099c-11.143-1.076-22.175-3.367-32.884-6.847c-14.076-4.573-27.048-11.701-38.338-20.9&#10;&#9;&#9;&#9;&#9;s-20.878-20.463-28.208-33.339c-3.673-6.461-7.954-12.573-12.769-18.239L9.277,210.541c-1.178-1.392-1.965-3.046-2.307-4.777&#10;&#9;&#9;&#9;&#9;c-0.339-1.74-0.252-3.562,0.314-5.303c1.131-3.481,3.986-6.118,7.537-6.983l15.678-3.792&#10;&#9;&#9;&#9;&#9;c10.34,12.436,27.142,30.105,34.533,44.974c13.343,23.461,34.975,41.089,60.644,49.429c6.089,2.082,12.858,4.124,19.908,5.692&#10;&#9;&#9;&#9;&#9;c2.747,0.611,4.759-2.552,3.029-4.771c-8.346-10.708-14.033-19.847-16.981-24.915c-3.585-6.149-4.378-13.546-2.181-20.308&#10;&#9;&#9;&#9;&#9;c2.197-6.762,7.186-12.28,13.701-15.147c9.036-3.988,31.14-12.739,58.98-16.878c1.634-0.243,3.043-1.267,3.778-2.746&#10;&#9;&#9;&#9;&#9;C207.413,201.995,208.952,199.075,210.507,196.266z"/>
                </g>
                <g>
                    <path style="fill:#FFF5C6;" d="M207.47,272.693l-25.131,26.405c-4.028,2.24-20.629-0.263-20.629-0.263&#10;&#9;&#9;&#9;&#9;c-14.765,10.029-27.71,22.561-38.242,37.057l0,0c-17.407,23.959-25.239,53.556-21.959,82.989l0,0&#10;&#9;&#9;&#9;&#9;c0.824,7.394,0.952,14.849,0.381,22.266L99.827,468l1.342,15.033c-0.28,3.647,0.029,5.055,2.988,7.205l0,0&#10;&#9;&#9;&#9;&#9;c2.959,2.15,6.822,2.611,10.205,1.217l31.989-18.004c6.878-2.835,14.008-5.017,21.294-6.518l0,0&#10;&#9;&#9;&#9;&#9;c29.006-5.976,51.382-25.006,68.789-48.965l0,0c13.241-18.224,22.343-39.12,26.671-61.227l7.477-38.194L207.47,272.693z"/>
                    <path style="fill:#FAE2C0;" d="M161.71,298.835c3.801-2.578,7.715-4.988,11.742-7.229l34.017-18.919l73.03,53.059&#10;&#9;&#9;&#9;&#9;c-4.366,20.719-8.237,50.294-17.471,70.271c-4.467,10.265-10.055,20.049-16.673,29.158&#10;&#9;&#9;&#9;&#9;c-8.699,11.973-19.487,22.108-31.724,30.003c-12.238,7.895-25.914,13.533-40.424,16.526c-7.28,1.497-14.416,3.679-21.292,6.508&#10;&#9;&#9;&#9;&#9;l-39.811,16.414c-1.688,0.69-3.504,0.927-5.256,0.718c-1.76-0.215-3.466-0.861-4.946-1.937c-2.961-2.151-4.587-5.681-4.312-9.326&#10;&#9;&#9;&#9;&#9;L99.827,468c15.022-5.991,37.019-16.51,53.444-18.945c26.436-5.44,49.885-20.566,65.75-42.401&#10;&#9;&#9;&#9;&#9;c3.861-5.148,7.896-10.954,11.566-17.174c1.43-2.424-0.956-5.315-3.601-4.355c-12.763,4.628-23.212,7.213-28.943,8.451&#10;&#9;&#9;&#9;&#9;c-6.956,1.51-14.236-0.022-19.988-4.201c-5.752-4.179-9.459-10.63-10.172-17.712c-1.001-9.826-2.493-33.553,2.174-61.309&#10;&#9;&#9;&#9;&#9;c0.274-1.629-0.265-3.285-1.444-4.442C166.202,303.548,163.9,301.183,161.71,298.835z"/>
                </g>
                <g>
                    <path style="fill:#FFF5C6;" d="M233.457,325.341l17.347,32.06c0.885,4.523-6.624,19.539-6.624,19.539&#10;&#9;&#9;&#9;&#9;c4.975,17.141,12.894,33.326,23.426,47.822l0,0c17.407,23.959,43.136,40.553,72.142,46.529l0,0&#10;&#9;&#9;&#9;&#9;c7.287,1.501,14.416,3.683,21.294,6.518l24.9,10.26l14.712,3.369c3.382,1.394,4.816,1.534,7.776-0.616l0,0&#10;&#9;&#9;&#9;&#9;c2.959-2.15,4.591-5.682,4.311-9.329l-7.237-35.987c-0.57-7.418-0.443-14.873,0.381-22.266l0,0&#10;&#9;&#9;&#9;&#9;c3.28-29.433-7.904-56.594-25.311-80.553l0,0c-13.241-18.224-30.301-33.338-49.988-44.286l-34.014-18.914L233.457,325.341z"/>
                    <path style="fill:#FAE2C0;" d="M244.179,376.94c-1.277-4.412-2.36-8.879-3.247-13.401l-7.481-38.198l73.03-53.059&#10;&#9;&#9;&#9;&#9;c18.355,10.555,45.287,23.375,61.433,38.331c8.382,7.42,15.961,15.758,22.579,24.868c8.699,11.974,15.005,25.365,18.731,39.443&#10;&#9;&#9;&#9;&#9;c3.727,14.078,4.863,28.827,3.225,43.552c-0.826,7.386-0.956,14.847-0.39,22.261l3.309,42.935&#10;&#9;&#9;&#9;&#9;c0.134,1.818-0.201,3.619-0.941,5.22c-0.748,1.607-1.89,3.03-3.371,4.105c-2.961,2.151-6.82,2.607-10.202,1.219l-14.913-6.147&#10;&#9;&#9;&#9;&#9;c-1.056-16.138-4.263-40.309-1.503-56.683c2.996-26.824-4.144-53.799-20.008-75.634c-3.702-5.263-7.978-10.894-12.76-16.307&#10;&#9;&#9;&#9;&#9;c-1.863-2.109-5.35-0.733-5.255,2.079c0.458,13.568-0.313,24.305-0.907,30.138c-0.714,7.082-4.42,13.532-10.172,17.712&#10;&#9;&#9;&#9;&#9;c-5.752,4.179-13.032,5.711-19.988,4.201c-9.654-2.085-32.681-7.997-57.636-21.013c-1.464-0.764-3.206-0.763-4.671,0.001&#10;&#9;&#9;&#9;&#9;C250.05,374.124,247.089,375.582,244.179,376.94z"/>
                </g>
                <g>
                    <path style="fill:#FFF5C6;" d="M291.559,316.895l35.851-6.59c4.575,0.556,16.535,12.338,16.535,12.338&#10;&#9;&#9;&#9;&#9;c17.84,0.565,35.679-1.965,52.721-7.502h0c28.166-9.152,51.898-28.493,66.545-54.233l0,0c3.679-6.466,7.958-12.572,12.779-18.238&#10;&#9;&#9;&#9;&#9;l17.452-20.511l7.75-12.951c2.371-2.786,2.948-4.106,1.817-7.585l0,0c-1.13-3.479-3.985-6.122-7.54-6.983l-36.462-4.238&#10;&#9;&#9;&#9;&#9;c-7.231-1.75-14.282-4.175-21.059-7.243l0,0c-26.979-12.215-56.267-9.971-84.432-0.82l0,0&#10;&#9;&#9;&#9;&#9;c-21.424,6.961-41.07,18.516-57.565,33.857l-28.499,26.505L291.559,316.895z"/>
                    <path style="fill:#FAE2C0;" d="M343.946,322.643c-4.591-0.149-9.173-0.5-13.748-1.053l-38.64-4.689l-27.895-85.852&#10;&#9;&#9;&#9;&#9;c15.711-14.195,36.225-35.847,55.439-46.581c9.647-5.679,19.919-10.31,30.628-13.789c14.076-4.573,28.76-6.432,43.301-5.626&#10;&#9;&#9;&#9;&#9;c14.541,0.806,28.919,4.283,42.417,10.391c6.769,3.068,13.825,5.497,21.051,7.25l41.856,10.121&#10;&#9;&#9;&#9;&#9;c1.771,0.434,3.38,1.31,4.674,2.508c1.297,1.208,2.297,2.734,2.863,4.474c1.131,3.481,0.372,7.292-1.993,10.079l-10.455,12.284&#10;&#9;&#9;&#9;&#9;c-15.674-3.983-39.653-8.402-54.373-16.087c-24.585-11.138-52.446-12.684-78.115-4.344c-6.15,1.895-12.826,4.221-19.452,7.096&#10;&#9;&#9;&#9;&#9;c-2.581,1.12-2.351,4.862,0.353,5.64c13.046,3.758,23.019,7.809,28.383,10.176c6.515,2.867,11.504,8.385,13.701,15.147&#10;&#9;&#9;&#9;&#9;c2.197,6.762,1.404,14.159-2.181,20.308c-4.966,8.537-17.705,28.61-37.795,48.322c-1.179,1.157-1.717,2.813-1.443,4.442&#10;&#9;&#9;&#9;&#9;C343.082,316.189,343.553,319.456,343.946,322.643z"/>
                </g>
                <path style="fill:#FFF5C6;" d="M331.255,176.35c-1.36,11.81-4.09,23.43-8.12,34.63c-3.15-0.61-6.4-1.17-9.74-1.67&#10;&#9;&#9;&#9;c-1.64-0.24-3.05-1.26-3.78-2.74c-2.27-4.55-4.62-8.88-6.99-12.96c4.88-3.72,9.98-7.14,15.26-10.25&#10;&#9;&#9;&#9;C322.226,180.81,326.685,178.47,331.255,176.35z"/>
                <path style="fill:#FFF5C6;" d="M363.498,246.319c-8.548-3.767-34.449-14.134-65.824-16.685c-1.123-0.091-2.1-0.801-2.534-1.841&#10;&#9;&#9;&#9;c-12.121-29.052-29.985-50.482-36.209-57.447c-1.195-1.337-3.278-1.337-4.472,0c-6.224,6.965-24.088,28.395-36.209,57.447&#10;&#9;&#9;&#9;c-0.434,1.04-1.411,1.75-2.534,1.841c-31.375,2.55-57.277,12.917-65.824,16.685c-1.641,0.723-2.284,2.704-1.382,4.253&#10;&#9;&#9;&#9;c4.701,8.072,19.562,31.684,43.447,52.189c0.854,0.733,1.228,1.881,0.968,2.976c-7.27,30.629-5.415,58.467-4.473,67.76&#10;&#9;&#9;&#9;c0.181,1.784,1.866,3.008,3.618,2.629c9.13-1.976,36.179-8.814,63.062-25.194c0.961-0.585,2.167-0.585,3.127,0&#10;&#9;&#9;&#9;c26.883,16.38,53.933,23.217,63.062,25.194c1.752,0.379,3.437-0.845,3.618-2.629c0.941-9.293,2.797-37.132-4.473-67.76&#10;&#9;&#9;&#9;c-0.26-1.096,0.113-2.243,0.968-2.976c23.884-20.506,38.746-44.117,43.447-52.189&#10;&#9;&#9;&#9;C365.783,249.023,365.139,247.042,363.498,246.319z"/>
                <path style="fill:#FCC16D;" d="M291.739,281.133c0,2.419-0.277,4.906-0.743,7.187c0,0-3.918,5.133-5.598,8.173&#10;&#9;&#9;&#9;c-5.97,10.802-15.487,16.753-28.702,16.753c-19.354,0-29.124-12.759-29.124-32.113c0-11.958,3.687-21.045,12.83-27.369&#10;&#9;&#9;&#9;c2.632-1.82,4.995-5.814,4.995-5.814c3.545-1.207,7.346-1.861,11.3-1.861C276.049,246.089,291.739,261.779,291.739,281.133z"/>
                <path style="fill:#FCA62F;" d="M290.995,288.32c-3.32,15.91-17.41,27.86-34.3,27.86c-19.35,0-35.04-15.69-35.04-35.05&#10;&#9;&#9;&#9;c0-15.4,9.93-28.48,23.74-33.18c-0.49,2.32-0.74,4.72-0.74,7.18c0,19.36,15.69,35.05,35.04,35.05&#10;&#9;&#9;&#9;C283.646,290.18,287.456,289.53,290.995,288.32z"/>
            </g>
            <g>
                <g>
                    <path style="fill:none;stroke:#000000;stroke-width:15;stroke-linecap:round;stroke-linejoin:round;stroke-miterlimit:10;" d="&#10;&#9;&#9;&#9;&#9;M38.662,461.048l-16.228-19.34c-1.775-2.115-1.499-5.269,0.616-7.044l84.465-70.887"/>
                    <path style="fill:none;stroke:#000000;stroke-width:15;stroke-linecap:round;stroke-linejoin:round;stroke-miterlimit:10;" d="&#10;&#9;&#9;&#9;&#9;M332.293,175.133L463.948,64.642c6.443-5.406,7.283-15.012,1.877-21.455l0,0c-5.406-6.443-15.012-7.283-21.455-1.877&#10;&#9;&#9;&#9;&#9;l-7.193,6.036c-6.398,5.369-15.937,4.534-21.306-1.864l0,0c-5.369-6.398-4.534-15.937,1.864-21.306l7.193-6.036&#10;&#9;&#9;&#9;&#9;c19.239-16.144,47.923-13.634,64.067,5.605l0,0c16.144,19.239,13.634,47.923-5.605,64.067l-11.765,9.874"/>
                    <path style="fill:none;stroke:#000000;stroke-width:15;stroke-linecap:round;stroke-linejoin:round;stroke-miterlimit:10;" d="&#10;&#9;&#9;&#9;&#9;M445.101,119.941l26.523-22.255l16.228,19.34c1.775,2.115,1.499,5.269-0.616,7.044l-56.399,47.325"/>
                    <line style="fill:none;stroke:#000000;stroke-width:15;stroke-linecap:round;stroke-linejoin:round;stroke-miterlimit:10;" x1="393.85" y1="162.945" x2="418.26" y2="142.463"/>
                    <path style="fill:none;stroke:#000000;stroke-width:15;stroke-linecap:round;stroke-linejoin:round;stroke-miterlimit:10;" d="&#10;&#9;&#9;&#9;&#9;M53.746,487.811l-20.153,16.91c-2.115,1.775-5.269,1.499-7.044-0.616l-13.014-15.51c-1.775-2.115-1.499-5.269,0.616-7.044&#10;&#9;&#9;&#9;&#9;l86.787-72.823"/>
                    <line style="fill:none;stroke:#000000;stroke-width:15;stroke-linecap:round;stroke-linejoin:round;stroke-miterlimit:10;" x1="101.149" y1="448.035" x2="80.568" y2="465.305"/>
                </g>
                <g>
                    <g>
                        <path style="fill:none;stroke:#000000;stroke-width:15;stroke-linecap:round;stroke-linejoin:round;stroke-miterlimit:10;" d="&#10;&#9;&#9;&#9;&#9;&#9;M180.587,176.606c-5.112-2.302-10.357-4.329-15.713-6.069l0,0c-28.166-9.152-58.734-7.454-85.713,4.761l0,0&#10;&#9;&#9;&#9;&#9;&#9;c-6.777,3.068-13.828,5.493-21.059,7.243l-41.851,10.127c-3.555,0.86-6.41,3.504-7.54,6.983l0,0&#10;&#9;&#9;&#9;&#9;&#9;c-1.13,3.479-0.375,7.295,1.996,10.081l27.906,32.792c4.821,5.666,9.1,11.772,12.779,18.238l0,0&#10;&#9;&#9;&#9;&#9;&#9;c14.647,25.74,38.379,45.081,66.545,54.233l0,0c5.712,1.856,11.513,3.373,17.375,4.549"/>
                        <path style="fill:none;stroke:#000000;stroke-width:15;stroke-linecap:round;stroke-linejoin:round;stroke-miterlimit:10;" d="&#10;&#9;&#9;&#9;&#9;&#9;M176.365,288.181l-1.811,1.007c-19.688,10.947-36.748,26.061-49.988,44.286l0,0c-17.407,23.959-25.239,53.556-21.959,82.989l0,0&#10;&#9;&#9;&#9;&#9;&#9;c0.824,7.394,0.952,14.849,0.381,22.266l-3.301,42.932c-0.28,3.647,1.351,7.179,4.311,9.329h0&#10;&#9;&#9;&#9;&#9;&#9;c2.959,2.15,6.822,2.611,10.205,1.217l39.811-16.406c6.878-2.835,14.008-5.017,21.294-6.518l0,0&#10;&#9;&#9;&#9;&#9;&#9;c29.006-5.976,54.734-22.57,72.142-46.529l0,0c3.423-4.712,6.57-9.602,9.429-14.646"/>
                        <path style="fill:none;stroke:#000000;stroke-width:15;stroke-linecap:round;stroke-linejoin:round;stroke-miterlimit:10;" d="&#10;&#9;&#9;&#9;&#9;&#9;M240.401,360.932c4.328,22.107,13.43,43.002,26.671,61.227l0,0c17.407,23.959,43.136,40.553,72.142,46.529h0&#10;&#9;&#9;&#9;&#9;&#9;c7.287,1.501,14.416,3.684,21.294,6.518l39.811,16.406c3.382,1.394,7.245,0.933,10.205-1.217v0&#10;&#9;&#9;&#9;&#9;&#9;c2.959-2.15,4.591-5.682,4.311-9.329l-3.301-42.932c-0.57-7.418-0.443-14.873,0.381-22.266v0&#10;&#9;&#9;&#9;&#9;&#9;c3.28-29.433-4.551-59.03-21.959-82.989l0,0c-3.381-4.654-7.011-9.105-10.871-13.335"/>
                        <path style="fill:none;stroke:#000000;stroke-width:15;stroke-linecap:round;stroke-linejoin:round;stroke-miterlimit:10;" d="&#10;&#9;&#9;&#9;&#9;&#9;M323.894,319.861l5.088,0.618c22.362,2.715,45.048,0.516,66.472-6.445l0,0c28.166-9.152,51.898-28.493,66.545-54.233l0,0&#10;&#9;&#9;&#9;&#9;&#9;c3.679-6.466,7.958-12.572,12.779-18.238l27.906-32.792c2.371-2.786,3.126-6.602,1.996-10.081v0&#10;&#9;&#9;&#9;&#9;&#9;c-1.13-3.479-3.985-6.122-7.54-6.983l-41.851-10.127c-7.231-1.75-14.281-4.175-21.059-7.243l0,0&#10;&#9;&#9;&#9;&#9;&#9;c-26.979-12.215-57.547-13.913-85.713-4.761l0,0c-5.724,1.86-11.322,4.048-16.766,6.548"/>
                        <path style="fill:none;stroke:#000000;stroke-width:15;stroke-linecap:round;stroke-linejoin:round;stroke-miterlimit:10;" d="&#10;&#9;&#9;&#9;&#9;&#9;M185.651,123.591c-3.453,11.226-5.251,22.991-5.251,34.93v0c0,22.527,4.918,44.781,14.411,65.21l3.731,8.028"/>
                        <path style="fill:none;stroke:#000000;stroke-width:15;stroke-linecap:round;stroke-linejoin:round;stroke-miterlimit:10;" d="&#10;&#9;&#9;&#9;&#9;&#9;M314.344,231.345l3.538-7.613c9.493-20.429,14.411-42.684,14.411-65.21v0c0-29.615-11.061-58.163-31.015-80.047l0,0&#10;&#9;&#9;&#9;&#9;&#9;c-5.013-5.497-9.498-11.453-13.396-17.79l-22.564-36.673c-1.917-3.116-5.313-5.013-8.971-5.013h0&#10;&#9;&#9;&#9;&#9;&#9;c-3.658,0-7.054,1.898-8.971,5.013l-22.564,36.673c-3.899,6.336-8.384,12.292-13.396,17.79l0,0&#10;&#9;&#9;&#9;&#9;&#9;c-3.865,4.239-7.397,8.728-10.579,13.427"/>
                        <g>
                            <line style="fill:none;stroke:#000000;stroke-width:15;stroke-linecap:round;stroke-linejoin:round;stroke-miterlimit:10;" x1="256.695" y1="167.919" x2="256.695" y2="120.5"/>
                            <line style="fill:none;stroke:#000000;stroke-width:15;stroke-linecap:round;stroke-linejoin:round;stroke-miterlimit:10;" x1="149.738" y1="244.992" x2="105.245" y2="230.535"/>
                            <line style="fill:none;stroke:#000000;stroke-width:15;stroke-linecap:round;stroke-linejoin:round;stroke-miterlimit:10;" x1="187.191" y1="375.409" x2="163.094" y2="408.576"/>
                            <line style="fill:none;stroke:#000000;stroke-width:15;stroke-linecap:round;stroke-linejoin:round;stroke-miterlimit:10;" x1="325.445" y1="374.37" x2="350.297" y2="408.576"/>
                            <line style="fill:none;stroke:#000000;stroke-width:15;stroke-linecap:round;stroke-linejoin:round;stroke-miterlimit:10;" x1="363.653" y1="244.992" x2="408.146" y2="230.535"/>
                        </g>
                    </g>
                    <path style="fill:none;stroke:#000000;stroke-width:15;stroke-linecap:round;stroke-linejoin:round;stroke-miterlimit:10;" d="&#10;&#9;&#9;&#9;&#9;M187.13,355.743c0.114,12.84,1.301,21.033,1.301,21.033s34.333-5.904,67.862-26.807c33.528,20.902,67.862,26.807,67.862,26.807&#10;&#9;&#9;&#9;&#9;s4.994-34.478-4.524-72.824c30.24-25.428,46.465-56.256,46.465-56.256s-31.247-15.404-70.658-18.201&#10;&#9;&#9;&#9;&#9;c-14.839-36.618-39.145-61.575-39.145-61.575s-24.306,24.957-39.145,61.575c-39.411,2.797-70.658,18.201-70.658,18.201&#10;&#9;&#9;&#9;&#9;s16.225,30.828,46.465,56.256c-1.397,5.629-2.482,11.175-3.315,16.54"/>
                    <circle style="fill:none;stroke:#000000;stroke-width:15;stroke-linecap:round;stroke-linejoin:round;stroke-miterlimit:10;" cx="256.876" cy="281.133" r="35.043"/>
                </g>
            </g>
        </g>
    </symbol>
</svg>