<?xml version="1.0" encoding="UTF-8" standalone="no"?>
<!-- Created with Inkscape (http://www.inkscape.org/) -->

<svg
   version="1.1"
   id="svg1101"
   xml:space="preserve"
   width="682.66669"
   height="682.66669"
   viewBox="0 0 682.66669 682.66669"
   xmlns="http://www.w3.org/2000/svg"
   xmlns:svg="http://www.w3.org/2000/svg"><defs
     id="defs1105"><clipPath
       clipPathUnits="userSpaceOnUse"
       id="clipPath1115"><path
         d="M 0,512 H 512 V 0 H 0 Z"
         id="path1113" /></clipPath><clipPath
       clipPathUnits="userSpaceOnUse"
       id="clipPath1171"><path
         d="M 0,512 H 512 V 0 H 0 Z"
         id="path1169" /></clipPath></defs><g
     id="g1107"
     transform="matrix(1.3333333,0,0,-1.3333333,0,682.66667)"><g
       id="g1109"><g
         id="g1111"
         clip-path="url(#clipPath1115)"><g
           id="g1117"
           transform="translate(68.4058,214.6543)"><path
             d="m 0,0 368.601,143.028 10.472,4.059 c 11.606,4.484 16.601,19.751 11.095,33.884 -5.476,14.133 -19.438,22.022 -31.044,17.538 L -19.95,51.422 C 6.555,61.695 24.292,9.421 0,0"
             style="fill:#d87e49;fill-opacity:1;fill-rule:evenodd;stroke:none"
             id="path1119" /></g><g
           id="g1121"
           transform="translate(437.0068,357.6826)"><path
             d="m 0,0 -368.601,-143.028 c 24.291,9.421 6.555,61.695 -19.95,51.422 -86.184,-33.431 -22.532,-197.459 63.624,-164.029 24.291,9.422 6.583,61.695 -19.95,51.422 l 368.63,143.029 z"
             style="fill:#ac5d2c;fill-opacity:1;fill-rule:evenodd;stroke:none"
             id="path1123" /></g><g
           id="g1125"
           transform="translate(460.7598,296.4985)"><path
             d="m 0,0 -368.63,-143.029 c 26.533,10.273 44.241,-42 19.95,-51.422 L 30.421,-47.364 c 11.578,4.512 16.572,19.751 11.096,33.884 C 36.04,0.652 22.05,8.542 10.471,4.058 Z"
             style="fill:#d87e49;fill-opacity:1;fill-rule:evenodd;stroke:none"
             id="path1127" /></g><g
           id="g1129"
           transform="translate(458.5742,395.625)"><path
             d="m 0,0 -381.116,-147.881 c 4.711,-12.97 3.093,-28.379 -9.052,-33.09 l 368.601,143.029 10.471,4.058 C 0.511,-29.4 5.506,-14.132 0,0"
             style="fill:#c86d35;fill-opacity:1;fill-rule:evenodd;stroke:none"
             id="path1131" /></g><g
           id="g1133"
           transform="translate(502.2764,283.0186)"><path
             d="m 0,0 -381.116,-147.882 c 4.711,-12.94 3.065,-28.378 -9.081,-33.089 L -11.096,-33.884 C 0.482,-29.372 5.477,-14.133 0,0"
             style="fill:#c86d35;fill-opacity:1;fill-rule:evenodd;stroke:none"
             id="path1135" /></g><g
           id="g1137"
           transform="translate(48.4561,266.0762)"><path
             d="M 0,0 C -86.184,-33.43 -22.532,-197.459 63.624,-164.029"
             style="fill:none;stroke:#000000;stroke-width:15.118;stroke-linecap:round;stroke-linejoin:round;stroke-miterlimit:10;stroke-dasharray:none;stroke-opacity:1"
             id="path1139" /></g><g
           id="g1141"
           transform="translate(437.0068,357.6826)"><path
             d="M 0,0 23.753,-61.184"
             style="fill:none;stroke:#000000;stroke-width:15.118;stroke-linecap:round;stroke-linejoin:round;stroke-miterlimit:10;stroke-dasharray:none;stroke-opacity:1"
             id="path1143" /></g><g
           id="g1145"
           transform="translate(238.7305,339.8892)"><path
             d="m 0,0 188.799,73.274 c 11.606,4.484 25.568,-3.405 31.045,-17.538 5.506,-14.132 0.51,-29.4 -11.096,-33.884 -126.367,-49.039 -252.734,-98.049 -379.073,-147.087 24.292,9.422 6.555,61.695 -19.949,51.422 l 155.113,60.163"
             style="fill:none;stroke:#000000;stroke-width:15.118;stroke-linecap:round;stroke-linejoin:round;stroke-miterlimit:10;stroke-dasharray:none;stroke-opacity:1"
             id="path1147" /></g><g
           id="g1149"
           transform="translate(92.1299,153.4697)"><path
             d="m 0,0 379.101,147.087 c 11.579,4.484 25.569,-3.406 31.045,-17.538 5.477,-14.133 0.483,-29.372 -11.095,-33.884 C 272.684,46.626 146.316,-2.384 19.95,-51.422 44.241,-42 26.533,10.273 0,0 Z"
             style="fill:none;stroke:#000000;stroke-width:15.118;stroke-linecap:round;stroke-linejoin:round;stroke-miterlimit:10;stroke-dasharray:none;stroke-opacity:1"
             id="path1151" /></g><g
           id="g1153"
           transform="translate(419.7812,116.4922)"><path
             d="m 0,0 c -17.85,-2.128 -135.533,-8.57 -182.441,6.868 -20.631,6.782 -27.215,20.574 -14.643,36.012 20.261,24.945 44.894,28.18 97.903,33.317 32.578,3.15 34.791,22.107 61.354,26.818 C -7.917,108.293 6.414,92.146 22.192,62.887 29.116,50.088 106.077,12.6 0,0"
             style="fill:#ffd772;fill-opacity:1;fill-rule:evenodd;stroke:none"
             id="path1155" /></g><g
           id="g1157"
           transform="translate(371.1699,202.5649)"><path
             d="m 0,0 c 14.87,-5.08 24.973,-18.957 35.785,-38.936 4.653,-8.627 40.949,-28.378 32.01,-44.242 76.763,14.7 9.478,48.074 3.009,59.992 C 60.701,-4.456 51.194,8.882 37.828,14.7 30.308,17.963 21.567,18.843 10.784,16.942 -3.32,14.444 -10.585,7.917 -19.155,1.873 -11.89,2.611 -5.59,1.93 0,0"
             style="fill:#fbba58;fill-opacity:1;fill-rule:evenodd;stroke:none"
             id="path1159" /></g><g
           id="g1161"
           transform="translate(323.7227,113.5122)"><path
             d="m 0,0 c -32.834,0.625 -66.178,3.207 -86.383,9.848 -20.631,6.782 -27.214,20.574 -14.643,36.012 20.262,24.945 44.894,28.18 97.904,33.317 32.578,3.15 34.791,22.107 61.353,26.818 29.911,5.278 44.242,-10.87 60.02,-40.128 C 125.175,53.068 202.136,15.58 96.059,2.98 88.709,2.1 64.36,0.482 35.018,-0.028"
             style="fill:none;stroke:#000000;stroke-width:15.118;stroke-linecap:round;stroke-linejoin:round;stroke-miterlimit:10;stroke-dasharray:none;stroke-opacity:1"
             id="path1163" /></g></g></g><g
       id="g1165"><g
         id="g1167"
         clip-path="url(#clipPath1171)"><g
           id="g1173"
           transform="translate(199.6577,687.9453)"><path
             d="m 0,0 -39.315,32.655 c -4.337,-5.273 -8.73,-10.488 -13.209,-15.647 -21.174,-24.52 -43.793,-47.792 -69.049,-68.853 -15.306,-12.756 -23.073,-26.305 -25.398,-39.061 -9.637,-52.922 74.18,-92.805 103.291,-9.949 C -30.443,-63.099 -4.309,-6.123 0,0"
             style="fill:#ffe5c1;fill-opacity:1;fill-rule:evenodd;stroke:none"
             id="path1175" /></g><g
           id="g1177"
           transform="translate(306.0098,796.5391)"><path
             d="m 0,0 c 60.801,50.06 130.19,96.661 186.03,139.633 9.014,6.945 -113.126,-14.286 -181.07,-80.645 34.554,43.257 59.497,86.286 177.811,167.129 1.899,1.021 7.851,14.542 -3.402,10.29 -202.64,-76.677 -260.38,-274.39 -407.294,-396.846 -78.687,-65.593 41.781,-151.878 77.893,-49.01 13.237,37.757 39.371,94.732 43.68,100.855 20.947,29.934 49.094,58.875 80.728,86.796"
             style="fill:none;stroke:#000000;stroke-width:15.118;stroke-linecap:round;stroke-linejoin:round;stroke-miterlimit:10;stroke-dasharray:none;stroke-opacity:1"
             id="path1179" /></g></g></g></g></svg>
