<svg version="1.1" id="Layer_1" xmlns="http://www.w3.org/2000/svg" xmlns:xlink="http://www.w3.org/1999/xlink" x="0px" y="0px" viewBox="0 0 511.942 511.942" style="enable-background:new 0 0 511.942 511.942;" xml:space="preserve">
<g>
	<g>
		<path style="fill:#AF602D;" d="M504.6,51.032c0,2.38-0.2,4.79-0.6,7.21l-111.55,405.26l-30.91-6.84l56.48-412.72&#10;&#9;&#9;&#9;c3.95-23.74,26.4-39.79,50.14-35.84C489.481,11.642,504.6,30.102,504.6,51.032z"/>
		<path style="fill:#D97C41;" d="M504.001,58.242l-62.44,375.58c-3.41,20.51-22.8,34.37-43.31,30.96l-5.8-1.28l67.39-405.33&#10;&#9;&#9;&#9;c0.74-4.51,6.2-6.45,9.56-3.37C475.171,60.102,485.54,63.932,504.001,58.242z"/>
		<path style="fill:#E4996D;" d="M349.404,456.659c0,0,1.779,22.124,23.406,35.068c10.401,6.225,23.818-0.236,25.806-12.194&#10;&#9;&#9;&#9;l62.702-377.143c1.356-8.155-3.233-16.13-10.958-19.073c-30.096-11.464-32.34-39.376-32.34-39.376L349.404,456.659z"/>
		<path style="fill:#AF602D;" d="M401.146,433.578L312.037,63.417c-4.866-20.214-25.198-32.657-45.413-27.79l-25.552,11.589&#10;&#9;&#9;&#9;l75.332,406.762c5.633,23.401,29.17,37.804,52.571,32.171l0,0C392.376,480.516,406.779,456.979,401.146,433.578z"/>
		<path style="fill:#D97C41;" d="M220.032,37.887c2.136-7.761,7.215-18.865,19.293-27.321c9.93-6.952,23.774-1.466,26.611,10.319&#10;&#9;&#9;&#9;l89.48,371.701c1.935,8.037-2.073,16.319-9.568,19.807c-29.2,13.584-29.445,41.585-29.445,41.585L219.82,52.768&#10;&#9;&#9;&#9;C218.64,47.867,218.694,42.748,220.032,37.887z"/>
		<path style="fill:#FBF198;" d="M500.66,281.952l-10.23,86.96l-15.09,39.21l6.23,36.09l-2.41,20.49&#10;&#9;&#9;&#9;c-2.67,22.66-21.87,39.74-44.69,39.74h-130.79c-22.82,0-42.03-17.08-44.7-39.74l-2.41-20.49l-8.86-75.3l-10.23-86.96&#10;&#9;&#9;&#9;c-2.08-17.73,11.67-33.32,29.47-33.5l31.71,10.85l57.92-10.86h114.28C488.82,248.442,502.76,264.112,500.66,281.952z"/>
		<path style="fill:#FAD989;" d="M369.251,504.442h-65.57c-22.82,0-42.03-17.08-44.7-39.74l-2.41-20.49l-8.86-75.3l-10.23-86.96&#10;&#9;&#9;&#9;c-2.09-17.84,11.84-33.51,29.8-33.51h93.28c-8.82,6.21-14.42,16.7-13.77,28.43l11.19,199.04&#10;&#9;&#9;&#9;C358.59,486.742,362.711,496.632,369.251,504.442z"/>
		<polygon style="fill:#FFCA8B;" points="490.431,368.912 481.57,444.212 356.201,444.212 345.64,406.562 351.961,368.912 &#9;&#9;"/>
		<polygon style="fill:#FFB25A;" points="356.201,444.212 256.57,444.212 247.711,368.912 351.961,368.912 &#9;&#9;"/>
		<path style="fill:#E4996D;" d="M322.521,303.952c-17.94-10.25-55.07-26.94-91.17-15.21l-0.11,0.03c-4.78,1.56-9.68-2-9.67-7.02&#10;&#9;&#9;&#9;v-0.12c0-20.76-8.18-39.18-18.1-53.89c-8.21-12.19-17.62-21.82-24.54-28.12c-5.71-5.18-14.42-5.18-20.13,0&#10;&#9;&#9;&#9;c-15.3,13.9-42.64,44.05-42.64,82.01v0.12c0,5.02-4.9,8.58-9.67,7.02l-0.11-0.03c-36.11-11.73-73.23,4.96-91.17,15.21&#10;&#9;&#9;&#9;c-6.69,3.82-9.39,12.1-6.23,19.12c8.48,18.84,28.71,54.18,64.83,65.92l0.11,0.04c4.77,1.54,6.64,7.3,3.69,11.36l-0.07,0.09&#10;&#9;&#9;&#9;c-22.32,30.73-17.91,71.21-13.7,91.44c1.56,7.53,8.61,12.65,16.26,11.81c8.2-0.89,19.48-2.76,31.5-6.63&#10;&#9;&#9;&#9;c18.07-5.83,37.81-16.2,51.22-34.66l0.07-0.09c2.95-4.06,9-4.06,11.95,0l0.07,0.09c22.32,30.73,62.18,39.04,82.72,41.29&#10;&#9;&#9;&#9;c7.64,0.84,14.69-4.28,16.26-11.81c4.21-20.23,8.62-60.71-13.71-91.44l-0.06-0.09c-2.96-4.06-1.08-9.82,3.69-11.36l0.11-0.04&#10;&#9;&#9;&#9;c36.12-11.74,56.34-47.08,64.83-65.92C331.91,316.052,329.211,307.772,322.521,303.952z"/>
		<path style="fill:#D97C41;" d="M203.471,227.742c-19.66,17.02-56,54.62-59.35,102.34c-1.36,19.36-6.13,38.37-14.65,55.82&#10;&#9;&#9;&#9;c-11.85,24.26-24.55,63.24-17.87,111.2c-12.02,3.87-23.3,5.74-31.5,6.63c-7.65,0.84-14.7-4.28-16.26-11.81&#10;&#9;&#9;&#9;c-4.21-20.23-8.62-60.71,13.7-91.44l0.07-0.09c2.95-4.06,1.08-9.82-3.69-11.36l-0.11-0.04c-36.12-11.74-56.35-47.08-64.83-65.92&#10;&#9;&#9;&#9;c-3.16-7.02-0.46-15.3,6.23-19.12c17.94-10.25,55.06-26.94,91.17-15.21l0.11,0.03c4.77,1.56,9.67-2,9.67-7.02v-0.12&#10;&#9;&#9;&#9;c0-37.96,27.34-68.11,42.64-82.01c5.71-5.18,14.42-5.18,20.13,0C185.85,205.922,195.26,215.552,203.471,227.742z"/>
		<path style="fill:#D97C41;" d="M177.714,376.643c-1.34,0.974-2.606,2.018-3.799,3.127c-2.865,2.663-7.238,2.663-10.104,0&#10;&#9;&#9;&#9;c-1.193-1.109-2.459-2.153-3.799-3.127c-1.34-0.974-2.725-1.855-4.148-2.647c-3.418-1.902-4.769-6.061-3.122-9.609&#10;&#9;&#9;&#9;c0.686-1.477,1.288-3.004,1.8-4.58c0.512-1.576,0.922-3.165,1.236-4.763c0.753-3.838,4.291-6.409,8.174-5.939&#10;&#9;&#9;&#9;c1.617,0.196,3.255,0.297,4.912,0.297s3.295-0.101,4.912-0.297c3.883-0.47,7.421,2.101,8.174,5.939&#10;&#9;&#9;&#9;c0.314,1.598,0.724,3.187,1.236,4.763c0.512,1.576,1.114,3.102,1.8,4.58c1.647,3.548,0.295,7.707-3.122,9.609&#10;&#9;&#9;&#9;C180.44,374.787,179.055,375.669,177.714,376.643z"/>
		<path style="fill:#D97C41;" d="M191.451,281.632c0,20.8-10.11,37.65-22.59,37.65c-7.94,0-14.93-6.83-18.95-17.17&#10;&#9;&#9;&#9;c-2.3-5.89-3.64-12.93-3.64-20.48c0-20.79,10.12-37.64,22.59-37.64c4.53,0,8.75,2.22,12.27,6.04&#10;&#9;&#9;&#9;C187.35,256.742,191.451,268.392,191.451,281.632z"/>
		<path style="fill:#AF602D;" d="M181.13,250.032c-12,13.84-24.19,31.57-31.22,52.08c-2.3-5.89-3.64-12.93-3.64-20.48&#10;&#9;&#9;&#9;c0-20.79,10.12-37.64,22.59-37.64C173.39,243.992,177.61,246.212,181.13,250.032z"/>
		
			<ellipse transform="matrix(0.309 -0.9511 0.9511 0.309 -260.0276 319.8344)" style="fill:#AF602D;" cx="90.093" cy="338.866" rx="22.588" ry="37.647"/>
		<path style="fill:#D97C41;" d="M138.451,444.742c-8.28,11.4-19.25,18.6-28.6,19.79c-4.46,0.56-8.55-0.25-11.8-2.61&#10;&#9;&#9;&#9;c-10.09-7.33-8.37-26.91,3.86-43.73c6.16-8.48,13.81-14.64,21.17-17.72c7.25-3.04,14.22-3.1,19.23,0.54&#10;&#9;&#9;&#9;C152.4,408.342,150.681,427.922,138.451,444.742z"/>
		<path style="fill:#AF602D;" d="M123.08,400.472c-6.69,17.1-12.43,38.83-13.23,64.06c-4.46,0.56-8.55-0.25-11.8-2.61&#10;&#9;&#9;&#9;c-10.09-7.33-8.37-26.91,3.86-43.73C108.07,409.712,115.721,403.552,123.08,400.472z"/>
		
			<ellipse transform="matrix(0.809 -0.5878 0.5878 0.809 -212.0615 210.2726)" style="fill:#D97C41;" cx="217.546" cy="431.465" rx="22.588" ry="37.647"/>
		
			<ellipse transform="matrix(0.9511 -0.309 0.309 0.9511 -92.5953 93.1081)" style="fill:#D97C41;" cx="247.633" cy="338.866" rx="37.647" ry="22.588"/>
	</g>
	<g>
		<path style="fill:none;stroke:#000000;stroke-width:15;stroke-linecap:round;stroke-linejoin:round;stroke-miterlimit:10;" d="&#10;&#9;&#9;&#9;M270.32,34.932c18.94-2.62,37.15,9.5,41.72,28.48l44.3,184.03"/>
		<path style="fill:none;stroke:#000000;stroke-width:15;stroke-linecap:round;stroke-linejoin:round;stroke-miterlimit:10;" d="&#10;&#9;&#9;&#9;M266.68,247.462l-46.86-194.69c-1.18-4.91-1.13-10.02,0.21-14.89c2.14-7.76,7.22-18.86,19.29-27.32&#10;&#9;&#9;&#9;c9.93-6.95,23.78-1.46,26.62,10.32l54.54,226.56"/>
		<path style="fill:none;stroke:#000000;stroke-width:15;stroke-linecap:round;stroke-linejoin:round;stroke-miterlimit:10;" d="&#10;&#9;&#9;&#9;M418.02,43.942c3.95-23.74,26.4-39.79,50.14-35.84c21.456,3.563,39.98,22.759,35.423,52.449L472.54,247.492"/>
		<path style="fill:none;stroke:#000000;stroke-width:15;stroke-linecap:round;stroke-linejoin:round;stroke-miterlimit:10;" d="&#10;&#9;&#9;&#9;M455.46,84.542l4.38-26.37c0.74-4.51,6.2-6.45,9.56-3.37c5.593,5.138,15.509,8.894,32.927,3.936"/>
		<path style="fill:none;stroke:#000000;stroke-width:15;stroke-linecap:round;stroke-linejoin:round;stroke-miterlimit:10;" d="&#10;&#9;&#9;&#9;M384.19,247.442l33.83-203.5c0,0,2.25,27.91,32.34,39.38c7.73,2.94,12.32,10.91,10.96,19.07l-5.95,35.82"/>
		
			<line style="fill:none;stroke:#000000;stroke-width:15;stroke-linecap:round;stroke-linejoin:round;stroke-miterlimit:10;" x1="449.63" y1="172.742" x2="437.21" y2="247.442"/>
		<path style="fill:none;stroke:#000000;stroke-width:15;stroke-linecap:round;stroke-linejoin:round;stroke-miterlimit:10;" d="&#10;&#9;&#9;&#9;M274.88,494.022c0,0.01,0,0.01,0,0.01c7.84,6.52,17.91,10.41,28.8,10.41h130.79c22.82,0,42.02-17.08,44.69-39.74l21.5-182.75&#10;&#9;&#9;&#9;c2.1-17.84-11.84-33.51-29.8-33.51H267.28c-17.96,0-31.89,15.67-29.8,33.51l0.52,4.43"/>
		
			<line style="fill:none;stroke:#000000;stroke-width:15;stroke-linecap:round;stroke-linejoin:round;stroke-miterlimit:10;" x1="412.69" y1="368.912" x2="297.97" y2="368.912"/>
		
			<line style="fill:none;stroke:#000000;stroke-width:15;stroke-linecap:round;stroke-linejoin:round;stroke-miterlimit:10;" x1="489.43" y1="368.912" x2="447.69" y2="368.912"/>
		
			<line style="fill:none;stroke:#000000;stroke-width:15;stroke-linecap:round;stroke-linejoin:round;stroke-miterlimit:10;" x1="478.57" y1="444.212" x2="278.54" y2="444.212"/>
		<path style="fill:none;stroke:#000000;stroke-width:15;stroke-linecap:round;stroke-linejoin:round;stroke-miterlimit:10;" d="&#10;&#9;&#9;&#9;M24.3,349.972c-7.02-9.89-12.05-19.62-15.32-26.9c-3.16-7.02-0.46-15.3,6.23-19.12c17.94-10.25,55.06-26.94,91.17-15.21l0.11,0.03&#10;&#9;&#9;&#9;c4.66,1.524,9.67-1.836,9.67-7.14c0-37.96,27.34-68.11,42.64-82.01c5.71-5.18,14.42-5.18,20.13,0&#10;&#9;&#9;&#9;c23.265,21.15,42.64,50.236,42.64,82.13c-0.01,5.02,4.89,8.58,9.67,7.02l0.11-0.03c36.1-11.73,73.23,4.96,91.17,15.21&#10;&#9;&#9;&#9;c6.69,3.82,9.39,12.1,6.23,19.12c-8.49,18.84-28.71,54.18-64.83,65.92c-5.212,1.895-6.587,7.22-3.74,11.49&#10;&#9;&#9;&#9;c22.33,30.73,17.92,71.21,13.71,91.44c-1.57,7.53-8.62,12.65-16.26,11.81c-20.54-2.25-60.4-10.56-82.72-41.29&#10;&#9;&#9;&#9;c-3.383-4.349-8.946-4.042-12.09,0c-22.32,30.73-62.19,39.04-82.72,41.29c-7.65,0.84-14.7-4.28-16.26-11.81&#10;&#9;&#9;&#9;c-4.21-20.23-8.62-60.71,13.7-91.44c2.837-3.648,1.683-9.521-3.73-11.49c-9.54-3.1-17.97-7.85-25.37-13.5"/>
		<path style="fill:none;stroke:#000000;stroke-width:15;stroke-linecap:round;stroke-linejoin:round;stroke-miterlimit:10;" d="&#10;&#9;&#9;&#9;M173.915,379.77c-2.865,2.663-7.238,2.663-10.104,0c-2.412-2.241-5.071-4.173-7.948-5.774c-3.418-1.902-4.769-6.061-3.122-9.609&#10;&#9;&#9;&#9;c1.386-2.987,2.402-6.111,3.036-9.343c0.753-3.838,4.291-6.409,8.174-5.939c3.269,0.395,6.555,0.395,9.824,0&#10;&#9;&#9;&#9;c3.883-0.47,7.421,2.101,8.174,5.939c0.634,3.231,1.649,6.356,3.036,9.343c1.647,3.548,0.295,7.707-3.122,9.609&#10;&#9;&#9;&#9;C178.986,375.597,176.327,377.528,173.915,379.77z"/>
		
			<ellipse style="fill:none;stroke:#000000;stroke-width:15;stroke-linecap:round;stroke-linejoin:round;stroke-miterlimit:10;" cx="168.863" cy="281.636" rx="22.588" ry="37.647"/>
		
			<ellipse transform="matrix(0.309 -0.9511 0.9511 0.309 -260.0276 319.8344)" style="fill:none;stroke:#000000;stroke-width:15;stroke-linecap:round;stroke-linejoin:round;stroke-miterlimit:10;" cx="90.093" cy="338.866" rx="22.588" ry="37.647"/>
		
			<ellipse transform="matrix(0.5878 -0.809 0.809 0.5878 -299.5226 275.0846)" style="fill:none;stroke:#000000;stroke-width:15;stroke-linecap:round;stroke-linejoin:round;stroke-miterlimit:10;" cx="120.181" cy="431.465" rx="37.647" ry="22.588"/>
		
			<ellipse transform="matrix(0.809 -0.5878 0.5878 0.809 -212.0615 210.2726)" style="fill:none;stroke:#000000;stroke-width:15;stroke-linecap:round;stroke-linejoin:round;stroke-miterlimit:10;" cx="217.546" cy="431.465" rx="22.588" ry="37.647"/>
		
			<ellipse transform="matrix(0.9511 -0.309 0.309 0.9511 -92.5953 93.1081)" style="fill:none;stroke:#000000;stroke-width:15;stroke-linecap:round;stroke-linejoin:round;stroke-miterlimit:10;" cx="247.633" cy="338.866" rx="37.647" ry="22.588"/>
	</g>
</g>
<g>
</g>
<g>
</g>
<g>
</g>
<g>
</g>
<g>
</g>
<g>
</g>
<g>
</g>
<g>
</g>
<g>
</g>
<g>
</g>
<g>
</g>
<g>
</g>
<g>
</g>
<g>
</g>
<g>
</g>
</svg>